<svg width="24" height="24" viewBox="0 0 24 24" fill="none" xmlns="http://www.w3.org/2000/svg">
<path fill-rule="evenodd" clip-rule="evenodd" d="M2.75 4C2.75 3.58579 3.08579 3.25 3.5 3.25H13.5C13.9142 3.25 14.25 3.58579 14.25 4V8.94118H12.75V4.75H4.25V19.25H12.75V14.8235H14.25V20C14.25 20.4142 13.9142 20.75 13.5 20.75H3.5C3.08579 20.75 2.75 20.4142 2.75 20V4Z" fill="#4B4B4B"/>
<path fill-rule="evenodd" clip-rule="evenodd" d="M21 12.75H8.25V11.25H21V12.75Z" fill="#4B4B4B"/>
<path fill-rule="evenodd" clip-rule="evenodd" d="M20.1821 12L16.4698 8.28769L17.5304 7.22703L21.7731 11.4697C22.066 11.7626 22.066 12.2374 21.7731 12.5303L17.5304 16.773L16.4698 15.7123L20.1821 12Z" fill="#4B4B4B"/>
</svg>
