<svg width="26" height="26" viewBox="0 0 26 26" fill="none" xmlns="http://www.w3.org/2000/svg">
<path d="M21.2605 23.7456H21.0945C4.82734 22.8326 2.50347 9.05538 2.17148 4.82261C2.08849 3.49468 3.08443 2.24974 4.49536 2.16675H9.06011C9.72408 2.16675 10.388 2.58173 10.637 3.24569L11.799 6.31653C12.048 6.8975 11.882 7.64446 11.467 8.14243L9.72408 9.88534C10.305 13.1222 12.7949 15.612 16.0317 16.193L17.8576 14.4501C18.3556 13.9521 19.0196 13.8691 19.6835 14.1181L22.8374 15.363C23.4183 15.612 23.8333 16.193 23.8333 16.94V21.2557C23.7503 22.6667 22.6714 23.7456 21.2605 23.7456Z" fill="#1D8BB0"/>
</svg>
