<svg width="32" height="32" viewBox="0 0 32 32" fill="none" xmlns="http://www.w3.org/2000/svg">
<path d="M12.1904 15.0476C12.6956 15.0476 13.1801 14.8469 13.5373 14.4897C13.8945 14.1325 14.0952 13.648 14.0952 13.1428C14.0952 12.6376 13.8945 12.1532 13.5373 11.7959C13.1801 11.4387 12.6956 11.2381 12.1904 11.2381C11.6853 11.2381 11.2008 11.4387 10.8436 11.7959C10.4864 12.1532 10.2857 12.6376 10.2857 13.1428C10.2857 13.648 10.4864 14.1325 10.8436 14.4897C11.2008 14.8469 11.6853 15.0476 12.1904 15.0476ZM21.7142 13.1428C21.7142 13.648 21.5136 14.1325 21.1564 14.4897C20.7991 14.8469 20.3147 15.0476 19.8095 15.0476C19.3043 15.0476 18.8198 14.8469 18.4626 14.4897C18.1054 14.1325 17.9047 13.648 17.9047 13.1428C17.9047 12.6376 18.1054 12.1532 18.4626 11.7959C18.8198 11.4387 19.3043 11.2381 19.8095 11.2381C20.3147 11.2381 20.7991 11.4387 21.1564 11.7959C21.5136 12.1532 21.7142 12.6376 21.7142 13.1428ZM9.85996 18.9581C10.0847 18.8457 10.3447 18.8267 10.5834 18.9052C10.8221 18.9837 11.0201 19.1533 11.1342 19.3771L11.1371 19.3828L11.1695 19.4381C11.2028 19.4923 11.2581 19.5771 11.3381 19.6847C11.499 19.899 11.7571 20.1952 12.1304 20.4942C12.8666 21.0828 14.0885 21.7142 16 21.7142C17.9114 21.7142 19.1333 21.0828 19.8695 20.4952C20.2438 20.1952 20.5019 19.899 20.6619 19.6847C20.7347 19.5881 20.8018 19.4873 20.8628 19.3828L20.8666 19.3762C20.9815 19.1524 21.1803 18.9832 21.4195 18.9055C21.6586 18.8277 21.9189 18.8478 22.1434 18.9612C22.3678 19.0746 22.5383 19.2723 22.6176 19.5109C22.6969 19.7496 22.6786 20.01 22.5666 20.2352V20.2362L22.5647 20.2381V20.24L22.5609 20.2457L22.5533 20.26C22.5237 20.3167 22.4919 20.3723 22.4581 20.4266C22.3745 20.5645 22.2839 20.698 22.1866 20.8266C21.8607 21.2575 21.4819 21.6456 21.059 21.9819C20.0095 22.8219 18.3742 23.619 16 23.619C13.6257 23.619 11.9904 22.8219 10.9409 21.9809C10.5185 21.6452 10.14 21.2577 9.81425 20.8276C9.67901 20.6469 9.55619 20.4573 9.44663 20.26L9.43901 20.2457L9.43615 20.24L9.4352 20.2371L9.43425 20.2352C9.32146 20.0094 9.30295 19.748 9.38278 19.5085C9.4626 19.269 9.63423 19.0711 9.85996 18.9581V18.9581ZM16 2.66663C8.63615 2.66663 2.66663 8.63615 2.66663 16C2.66663 23.3638 8.63615 29.3333 16 29.3333C23.3638 29.3333 29.3333 23.3638 29.3333 16C29.3333 8.63615 23.3638 2.66663 16 2.66663ZM4.57139 16C4.57139 9.68853 9.68853 4.57139 16 4.57139C22.3114 4.57139 27.4285 9.68853 27.4285 16C27.4285 22.3114 22.3114 27.4285 16 27.4285C9.68853 27.4285 4.57139 22.3114 4.57139 16Z" fill="#1D8BB0"/>
</svg>
