<svg width="36" height="36" viewBox="0 0 36 36" fill="none" xmlns="http://www.w3.org/2000/svg">
<path d="M4.55074 3.11318C4.37138 3.02347 4.17044 2.9859 3.97079 3.00474C3.77113 3.02358 3.58077 3.09808 3.42135 3.21976C3.26194 3.34144 3.13988 3.50542 3.06905 3.69304C2.99822 3.88066 2.98147 4.08439 3.0207 4.28106L6.02721 14.6742C6.08327 14.8679 6.19284 15.0418 6.34334 15.176C6.49383 15.3102 6.67913 15.3992 6.87795 15.4328L19.0711 17.475C19.6454 17.5886 19.6454 18.4114 19.0711 18.525L6.87795 20.5672C6.67913 20.6008 6.49383 20.6898 6.34334 20.824C6.19284 20.9582 6.08327 21.1321 6.02721 21.3258L3.0207 31.7189C2.98147 31.9156 2.99822 32.1193 3.06905 32.307C3.13988 32.4946 3.26194 32.6586 3.42135 32.7802C3.58077 32.9019 3.77113 32.9764 3.97079 32.9953C4.17044 33.0141 4.37138 32.9765 4.55074 32.8868L32.4086 18.9579C32.5864 18.8688 32.7358 18.732 32.8402 18.5629C32.9447 18.3937 33 18.1988 33 18C33 17.8012 32.9447 17.6063 32.8402 17.4371C32.7358 17.268 32.5864 17.1312 32.4086 17.0421L4.55074 3.11318V3.11318Z" fill="#1D8BB0"/>
</svg>
