<svg width="32" height="32" viewBox="0 0 32 32" fill="none" xmlns="http://www.w3.org/2000/svg">
<path d="M27.9048 22.0505L24.0953 19.8571V24.3809C24.0953 25.4315 23.2412 26.2856 22.1906 26.2856H4.57151C3.52091 26.2856 2.66675 25.4315 2.66675 24.3809V7.23802C2.66675 6.18743 3.52091 5.33326 4.57151 5.33326H22.1906C23.2412 5.33326 24.0953 6.18743 24.0953 7.23802V11.7618L27.9048 9.56838C28.5388 9.20231 29.3334 9.66064 29.3334 10.3898V21.2261C29.3334 21.9583 28.5388 22.4166 27.9048 22.0505ZM21.9525 7.47612H4.80961V24.1428H21.9525V7.47612ZM27.1906 12.4464L24.0953 14.2261V17.3898L27.1906 19.1725V12.4464Z" fill="#4B4B4B"/>
<path d="M12.9644 20.238H7.13102C6.90186 20.238 6.71436 20.3505 6.71436 20.488V21.988C6.71436 22.1255 6.90186 22.238 7.13102 22.238H12.9644C13.1935 22.238 13.381 22.1255 13.381 21.988V20.488C13.381 20.3505 13.1935 20.238 12.9644 20.238Z" fill="#4B4B4B"/>
</svg>
