<svg width="24" height="24" viewBox="0 0 24 24" fill="none" xmlns="http://www.w3.org/2000/svg">
<path d="M20.1481 5.69231H17L16.25 3.50962C16.1982 3.36026 16.1032 3.23116 15.9781 3.13995C15.853 3.04873 15.7038 2.99986 15.5509 3H8.44907C8.13657 3 7.85648 3.20433 7.75231 3.50962L7 5.69231H3.85185C2.8287 5.69231 2 6.55289 2 7.61539V18.5769C2 19.6394 2.8287 20.5 3.85185 20.5H20.1481C21.1713 20.5 22 19.6394 22 18.5769V7.61539C22 6.55289 21.1713 5.69231 20.1481 5.69231ZM20.3333 18.5769C20.3333 18.6827 20.25 18.7692 20.1481 18.7692H3.85185C3.75 18.7692 3.66667 18.6827 3.66667 18.5769V7.61539C3.66667 7.50962 3.75 7.42308 3.85185 7.42308H8.17361L8.56944 6.27404L9.09954 4.73077H14.8981L15.4282 6.27404L15.8241 7.42308H20.1481C20.25 7.42308 20.3333 7.50962 20.3333 7.61539V18.5769ZM12 8.96154C9.9537 8.96154 8.2963 10.6827 8.2963 12.8077C8.2963 14.9327 9.9537 16.6538 12 16.6538C14.0463 16.6538 15.7037 14.9327 15.7037 12.8077C15.7037 10.6827 14.0463 8.96154 12 8.96154ZM12 15.1154C10.7731 15.1154 9.77778 14.0817 9.77778 12.8077C9.77778 11.5337 10.7731 10.5 12 10.5C13.2269 10.5 14.2222 11.5337 14.2222 12.8077C14.2222 14.0817 13.2269 15.1154 12 15.1154Z" fill="#666666"/>
</svg>
