<svg width="26" height="26" viewBox="0 0 26 26" fill="none" xmlns="http://www.w3.org/2000/svg">
<path d="M22.6726 17.9161L19.5774 16.134V19.8096C19.5774 20.6632 18.8834 21.3572 18.0298 21.3572H3.71428C2.86067 21.3572 2.16666 20.6632 2.16666 19.8096V5.88099C2.16666 5.02738 2.86067 4.33337 3.71428 4.33337H18.0298C18.8834 4.33337 19.5774 5.02738 19.5774 5.88099V9.55658L22.6726 7.7744C23.1877 7.47697 23.8333 7.84936 23.8333 8.44181V17.2463C23.8333 17.8412 23.1877 18.2136 22.6726 17.9161ZM17.8363 6.07444H3.90773V19.6161H17.8363V6.07444ZM22.0923 10.1128L19.5774 11.5588V14.1293L22.0923 15.5778V10.1128Z" fill="#1D8BB0"/>
<path d="M10.5335 16.4434H5.79389C5.6077 16.4434 5.45535 16.5348 5.45535 16.6465V17.8652C5.45535 17.977 5.6077 18.0684 5.79389 18.0684H10.5335C10.7197 18.0684 10.872 17.977 10.872 17.8652V16.6465C10.872 16.5348 10.7197 16.4434 10.5335 16.4434Z" fill="#8FB5BE"/>
</svg>
