<svg width="32" height="32" viewBox="0 0 32 32" fill="none" xmlns="http://www.w3.org/2000/svg">
<path fill-rule="evenodd" clip-rule="evenodd" d="M27.3334 16C27.3334 22.2592 22.2593 27.3333 16.0001 27.3333C13.2305 27.3333 10.693 26.3399 8.72437 24.6899L24.69 8.72425C26.34 10.6928 27.3334 13.2304 27.3334 16ZM7.31016 23.2757L23.2758 7.31004C21.3072 5.66006 18.7696 4.66663 16.0001 4.66663C9.74085 4.66663 4.66675 9.74073 4.66675 16C4.66675 18.7695 5.66019 21.3071 7.31016 23.2757ZM16.0001 29.3333C23.3639 29.3333 29.3334 23.3638 29.3334 16C29.3334 8.63616 23.3639 2.66663 16.0001 2.66663C8.63628 2.66663 2.66675 8.63616 2.66675 16C2.66675 23.3638 8.63628 29.3333 16.0001 29.3333Z" fill="#4B4B4B"/>
</svg>
