<svg width="26" height="26" viewBox="0 0 26 26" fill="none" xmlns="http://www.w3.org/2000/svg">
<path fill-rule="evenodd" clip-rule="evenodd" d="M15.4375 18.9584H20.5833C22.3783 18.9584 23.8333 17.5033 23.8333 15.7084V5.41675C23.8333 3.62182 22.3783 2.16675 20.5833 2.16675H5.41667C3.62175 2.16675 2.16667 3.62182 2.16667 5.41675V15.7084C2.16667 17.5033 3.62175 18.9584 5.41667 18.9584H7.58334V23.8334L15.4375 18.9584ZM9.20834 20.9122L14.5805 17.5778C14.8378 17.418 15.1347 17.3334 15.4375 17.3334H20.5833C21.4808 17.3334 22.2083 16.6059 22.2083 15.7084V5.41675C22.2083 4.51929 21.4808 3.79175 20.5833 3.79175H5.41667C4.51921 3.79175 3.79167 4.51929 3.79167 5.41675V15.7084C3.79167 16.6059 4.51921 17.3334 5.41667 17.3334H7.58334C8.4808 17.3334 9.20834 18.061 9.20834 18.9584V20.9122ZM18.4167 9.47925H7.58334V7.85425H18.4167V9.47925ZM7.58334 13.5417H14.0833V11.9167H7.58334V13.5417Z" fill="#8FB5BE"/>
</svg>
