<svg width="32" height="32" viewBox="0 0 32 32" fill="none" xmlns="http://www.w3.org/2000/svg">
<path fill-rule="evenodd" clip-rule="evenodd" d="M14.9655 2.55842C15.3934 2.90753 15.4573 3.53746 15.1082 3.96541L5.29055 15.9999L15.1082 28.0345C15.4573 28.4624 15.3934 29.0924 14.9655 29.4415C14.5375 29.7906 13.9076 29.7267 13.5585 29.2987L3.22514 16.6321C2.92496 16.2641 2.92496 15.7358 3.22514 15.3678L13.5585 2.70116C13.9076 2.27321 14.5375 2.2093 14.9655 2.55842Z" fill="#4B4B4B"/>
<path fill-rule="evenodd" clip-rule="evenodd" d="M3.66663 16C3.66663 15.4477 4.11434 15 4.66663 15H27.3333C27.8856 15 28.3333 15.4477 28.3333 16C28.3333 16.5523 27.8856 17 27.3333 17H4.66663C4.11434 17 3.66663 16.5523 3.66663 16Z" fill="#4B4B4B"/>
</svg>
