<svg width="32" height="32" viewBox="0 0 32 32" fill="none" xmlns="http://www.w3.org/2000/svg">
<path d="M20.3636 9.45455V22C20.3636 24.4109 18.4109 26.3636 16 26.3636C13.5891 26.3636 11.6364 24.4109 11.6364 22V8.36364C11.6364 7.64032 11.9237 6.94663 12.4352 6.43516C12.9466 5.9237 13.6403 5.63636 14.3636 5.63636C15.087 5.63636 15.7806 5.9237 16.2921 6.43516C16.8036 6.94663 17.0909 7.64032 17.0909 8.36364V19.8182C17.0909 20.4182 16.6 20.9091 16 20.9091C15.4 20.9091 14.9091 20.4182 14.9091 19.8182V9.45455H13.2727V19.8182C13.2727 20.5415 13.5601 21.2352 14.0715 21.7467C14.583 22.2581 15.2767 22.5455 16 22.5455C16.7233 22.5455 17.417 22.2581 17.9285 21.7467C18.4399 21.2352 18.7273 20.5415 18.7273 19.8182V8.36364C18.7273 5.95273 16.7745 4 14.3636 4C11.9527 4 10 5.95273 10 8.36364V22C10 25.3164 12.6836 28 16 28C19.3164 28 22 25.3164 22 22V9.45455H20.3636Z" fill="#1D8BB0"/>
</svg>
