<svg width="24" height="24" viewBox="0 0 24 24" fill="none" xmlns="http://www.w3.org/2000/svg">
<path fill-rule="evenodd" clip-rule="evenodd" d="M10.25 17C13.9779 17 17 13.9779 17 10.25C17 6.52208 13.9779 3.5 10.25 3.5C6.52208 3.5 3.5 6.52208 3.5 10.25C3.5 13.9779 6.52208 17 10.25 17ZM10.25 18.5C14.8063 18.5 18.5 14.8063 18.5 10.25C18.5 5.69365 14.8063 2 10.25 2C5.69365 2 2 5.69365 2 10.25C2 14.8063 5.69365 18.5 10.25 18.5Z" fill="#666666"/>
<path fill-rule="evenodd" clip-rule="evenodd" d="M14.9697 14.9697C15.2626 14.6768 15.7374 14.6768 16.0303 14.9697L21.5303 20.4697C21.8232 20.7626 21.8232 21.2374 21.5303 21.5303C21.2374 21.8232 20.7626 21.8232 20.4697 21.5303L14.9697 16.0303C14.6768 15.7374 14.6768 15.2626 14.9697 14.9697Z" fill="#666666"/>
</svg>
