<svg width="26" height="26" viewBox="0 0 26 26" fill="none" xmlns="http://www.w3.org/2000/svg">
<path d="M21.2605 23.7456H21.0945C4.82734 22.8326 2.50347 9.05538 2.17148 4.82261C2.08849 3.49468 3.08443 2.24974 4.49536 2.16675H9.06011C9.72408 2.16675 10.388 2.58173 10.637 3.24569L11.799 6.31653C12.048 6.8975 11.882 7.64446 11.467 8.14243L9.72408 9.88534C10.305 13.1222 12.7949 15.612 16.0317 16.193L17.8576 14.4501C18.3556 13.9521 19.0196 13.8691 19.6835 14.1181L22.8374 15.363C23.4183 15.612 23.8333 16.193 23.8333 16.94V21.2557C23.7503 22.6667 22.6714 23.7456 21.2605 23.7456V23.7456ZM4.66135 3.82666C4.16338 3.82666 3.83139 4.15864 3.83139 4.65661V4.73961C4.24637 9.63635 6.65324 21.2557 21.1775 22.0857C21.6754 22.0857 22.0074 21.7537 22.0904 21.3387V16.857L18.9366 15.612L16.5297 18.0189L16.1977 17.9359C8.97712 17.023 7.98117 9.80234 7.98117 9.71934L7.89818 9.30437L10.2221 6.8975L9.06011 3.82666H4.66135Z" fill="#1D8BB0"/>
</svg>
