<svg width="32" height="32" viewBox="0 0 32 32" fill="none" xmlns="http://www.w3.org/2000/svg">
<path fill-rule="evenodd" clip-rule="evenodd" d="M16 27.5335C21.6333 27.5335 26.2 22.9668 26.2 17.3335C26.2 11.7002 21.6333 7.1335 16 7.1335C10.3667 7.1335 5.8 11.7002 5.8 17.3335C5.8 22.9668 10.3667 27.5335 16 27.5335ZM16 29.3335C22.6274 29.3335 28 23.9609 28 17.3335C28 10.7061 22.6274 5.3335 16 5.3335C9.37258 5.3335 4 10.7061 4 17.3335C4 23.9609 9.37258 29.3335 16 29.3335Z" fill="#4B4B4B"/>
<rect x="12.1614" y="6.43799" width="5.33333" height="5.33333" transform="rotate(-45 12.1614 6.43799)" fill="#4B4B4B"/>
<rect x="3.33325" y="24.6667" width="5.33333" height="5.33333" transform="rotate(-75 3.33325 24.6667)" fill="#4B4B4B"/>
<rect x="22.5964" y="20.6667" width="5.33333" height="5.33333" transform="rotate(-17.2073 22.5964 20.6667)" fill="#4B4B4B"/>
</svg>
