<svg width="32" height="32" viewBox="0 0 32 32" fill="none" xmlns="http://www.w3.org/2000/svg">
<path d="M22.7407 14V16.875C22.7407 18.6542 22.0305 20.3605 20.7663 21.6185C19.5022 22.8766 17.7877 23.5833 15.9999 23.5833C14.2122 23.5833 12.4976 22.8766 11.2335 21.6185C9.96936 20.3605 9.25918 18.6542 9.25918 16.875V14H7.33325V16.875C7.33426 18.9959 8.12043 21.042 9.54154 22.6224C10.9626 24.2029 12.9191 25.2069 15.037 25.4425V27.4167H11.1851V29.3333H20.8147V27.4167H16.9629V25.4425C19.0808 25.2069 21.0372 24.2029 22.4583 22.6224C23.8794 21.042 24.6656 18.9959 24.6666 16.875V14H22.7407Z" fill="#4B4B4B"/>
<path d="M15.9999 22C17.2376 22 18.4246 21.4907 19.2997 20.5843C20.1749 19.6779 20.6666 18.4485 20.6666 17.1666V7.49996C20.6666 6.21808 20.1749 4.9887 19.2997 4.08228C18.4246 3.17585 17.2376 2.66663 15.9999 2.66663C14.7622 2.66663 13.5753 3.17585 12.7001 4.08228C11.8249 4.9887 11.3333 6.21808 11.3333 7.49996V17.1666C11.3333 18.4485 11.8249 19.6779 12.7001 20.5843C13.5753 21.4907 14.7622 22 15.9999 22Z" fill="#4B4B4B"/>
</svg>
