<svg width="32" height="32" viewBox="0 0 32 32" fill="none" xmlns="http://www.w3.org/2000/svg">
<path fill-rule="evenodd" clip-rule="evenodd" d="M16 27.3334C22.2592 27.3334 27.3333 22.2593 27.3333 16.0001C27.3333 9.74085 22.2592 4.66675 16 4.66675C9.74073 4.66675 4.66663 9.74085 4.66663 16.0001C4.66663 22.2593 9.74073 27.3334 16 27.3334ZM16 29.3334C23.3638 29.3334 29.3333 23.3639 29.3333 16.0001C29.3333 8.63628 23.3638 2.66675 16 2.66675C8.63616 2.66675 2.66663 8.63628 2.66663 16.0001C2.66663 23.3639 8.63616 29.3334 16 29.3334Z" fill="#4B4B4B"/>
<rect x="12" y="8.66675" width="2" height="15.3333" fill="#4B4B4B"/>
<rect x="18" y="8.66675" width="2" height="15.3333" fill="#4B4B4B"/>
</svg>
