<svg width="32" height="32" viewBox="0 0 32 32" fill="none" xmlns="http://www.w3.org/2000/svg">
<path d="M15.697 24.4848C14.3636 24.4848 13.2727 25.5757 13.2727 26.9091C13.2727 28.2424 14.3636 29.3333 15.697 29.3333C17.0303 29.3333 18.1212 28.2424 18.1212 26.9091C18.1212 25.5757 17.0303 24.4848 15.697 24.4848ZM8.42424 2.66663C7.09091 2.66663 6 3.75754 6 5.09087C6 6.4242 7.09091 7.51511 8.42424 7.51511C9.75758 7.51511 10.8485 6.4242 10.8485 5.09087C10.8485 3.75754 9.75758 2.66663 8.42424 2.66663ZM8.42424 9.93935C7.09091 9.93935 6 11.0303 6 12.3636C6 13.6969 7.09091 14.7878 8.42424 14.7878C9.75758 14.7878 10.8485 13.6969 10.8485 12.3636C10.8485 11.0303 9.75758 9.93935 8.42424 9.93935ZM8.42424 17.2121C7.09091 17.2121 6 18.303 6 19.6363C6 20.9697 7.09091 22.0606 8.42424 22.0606C9.75758 22.0606 10.8485 20.9697 10.8485 19.6363C10.8485 18.303 9.75758 17.2121 8.42424 17.2121ZM22.9697 7.51511C24.303 7.51511 25.3939 6.4242 25.3939 5.09087C25.3939 3.75754 24.303 2.66663 22.9697 2.66663C21.6364 2.66663 20.5455 3.75754 20.5455 5.09087C20.5455 6.4242 21.6364 7.51511 22.9697 7.51511ZM15.697 17.2121C14.3636 17.2121 13.2727 18.303 13.2727 19.6363C13.2727 20.9697 14.3636 22.0606 15.697 22.0606C17.0303 22.0606 18.1212 20.9697 18.1212 19.6363C18.1212 18.303 17.0303 17.2121 15.697 17.2121ZM22.9697 17.2121C21.6364 17.2121 20.5455 18.303 20.5455 19.6363C20.5455 20.9697 21.6364 22.0606 22.9697 22.0606C24.303 22.0606 25.3939 20.9697 25.3939 19.6363C25.3939 18.303 24.303 17.2121 22.9697 17.2121ZM22.9697 9.93935C21.6364 9.93935 20.5455 11.0303 20.5455 12.3636C20.5455 13.6969 21.6364 14.7878 22.9697 14.7878C24.303 14.7878 25.3939 13.6969 25.3939 12.3636C25.3939 11.0303 24.303 9.93935 22.9697 9.93935ZM15.697 9.93935C14.3636 9.93935 13.2727 11.0303 13.2727 12.3636C13.2727 13.6969 14.3636 14.7878 15.697 14.7878C17.0303 14.7878 18.1212 13.6969 18.1212 12.3636C18.1212 11.0303 17.0303 9.93935 15.697 9.93935ZM15.697 2.66663C14.3636 2.66663 13.2727 3.75754 13.2727 5.09087C13.2727 6.4242 14.3636 7.51511 15.697 7.51511C17.0303 7.51511 18.1212 6.4242 18.1212 5.09087C18.1212 3.75754 17.0303 2.66663 15.697 2.66663Z" fill="#4B4B4B"/>
</svg>
