<svg width="32" height="32" viewBox="0 0 32 32" fill="none" xmlns="http://www.w3.org/2000/svg">
<path fill-rule="evenodd" clip-rule="evenodd" d="M2.66675 16.3333C2.66675 15.781 3.10354 15.3333 3.64236 15.3333H28.3578C28.8966 15.3333 29.3334 15.781 29.3334 16.3333C29.3334 16.8855 28.8966 17.3333 28.3578 17.3333H3.64236C3.10354 17.3333 2.66675 16.8855 2.66675 16.3333Z" fill="#4B4B4B"/>
<path fill-rule="evenodd" clip-rule="evenodd" d="M16.3335 29.3333C15.7812 29.3333 15.3335 28.8965 15.3335 28.3576L15.3335 3.64219C15.3335 3.10338 15.7812 2.66658 16.3335 2.66658C16.8858 2.66658 17.3335 3.10338 17.3335 3.64219L17.3335 28.3576C17.3335 28.8965 16.8858 29.3333 16.3335 29.3333Z" fill="#4B4B4B"/>
</svg>
