<svg width="48" height="48" viewBox="0 0 48 48" fill="none" xmlns="http://www.w3.org/2000/svg">
<path fill-rule="evenodd" clip-rule="evenodd" d="M28.5 35H38C41.3137 35 44 32.3137 44 29V10C44 6.68629 41.3137 4 38 4H10C6.68629 4 4 6.68629 4 10V29C4 32.3137 6.68629 35 10 35H14V44L28.5 35ZM17 38.607L26.9179 32.4511C27.3929 32.1562 27.9409 32 28.5 32H38C39.6569 32 41 30.6569 41 29V10C41 8.34315 39.6569 7 38 7H10C8.34315 7 7 8.34315 7 10V29C7 30.6569 8.34315 32 10 32H14C15.6569 32 17 33.3431 17 35V38.607ZM34 17.5H14V14.5H34V17.5ZM14 25H26V22H14V25Z" fill="#999999"/>
</svg>
