<svg width="48" height="48" viewBox="0 0 48 48" fill="none" xmlns="http://www.w3.org/2000/svg">
<path d="M23.5455 36.7273C21.5455 36.7273 19.9091 38.3636 19.9091 40.3636C19.9091 42.3636 21.5455 44 23.5455 44C25.5455 44 27.1818 42.3636 27.1818 40.3636C27.1818 38.3636 25.5455 36.7273 23.5455 36.7273ZM12.6364 4C10.6364 4 9 5.63636 9 7.63636C9 9.63636 10.6364 11.2727 12.6364 11.2727C14.6364 11.2727 16.2727 9.63636 16.2727 7.63636C16.2727 5.63636 14.6364 4 12.6364 4ZM12.6364 14.9091C10.6364 14.9091 9 16.5455 9 18.5455C9 20.5455 10.6364 22.1818 12.6364 22.1818C14.6364 22.1818 16.2727 20.5455 16.2727 18.5455C16.2727 16.5455 14.6364 14.9091 12.6364 14.9091ZM12.6364 25.8182C10.6364 25.8182 9 27.4545 9 29.4545C9 31.4545 10.6364 33.0909 12.6364 33.0909C14.6364 33.0909 16.2727 31.4545 16.2727 29.4545C16.2727 27.4545 14.6364 25.8182 12.6364 25.8182ZM34.4545 11.2727C36.4545 11.2727 38.0909 9.63636 38.0909 7.63636C38.0909 5.63636 36.4545 4 34.4545 4C32.4545 4 30.8182 5.63636 30.8182 7.63636C30.8182 9.63636 32.4545 11.2727 34.4545 11.2727ZM23.5455 25.8182C21.5455 25.8182 19.9091 27.4545 19.9091 29.4545C19.9091 31.4545 21.5455 33.0909 23.5455 33.0909C25.5455 33.0909 27.1818 31.4545 27.1818 29.4545C27.1818 27.4545 25.5455 25.8182 23.5455 25.8182ZM34.4545 25.8182C32.4545 25.8182 30.8182 27.4545 30.8182 29.4545C30.8182 31.4545 32.4545 33.0909 34.4545 33.0909C36.4545 33.0909 38.0909 31.4545 38.0909 29.4545C38.0909 27.4545 36.4545 25.8182 34.4545 25.8182ZM34.4545 14.9091C32.4545 14.9091 30.8182 16.5455 30.8182 18.5455C30.8182 20.5455 32.4545 22.1818 34.4545 22.1818C36.4545 22.1818 38.0909 20.5455 38.0909 18.5455C38.0909 16.5455 36.4545 14.9091 34.4545 14.9091ZM23.5455 14.9091C21.5455 14.9091 19.9091 16.5455 19.9091 18.5455C19.9091 20.5455 21.5455 22.1818 23.5455 22.1818C25.5455 22.1818 27.1818 20.5455 27.1818 18.5455C27.1818 16.5455 25.5455 14.9091 23.5455 14.9091ZM23.5455 4C21.5455 4 19.9091 5.63636 19.9091 7.63636C19.9091 9.63636 21.5455 11.2727 23.5455 11.2727C25.5455 11.2727 27.1818 9.63636 27.1818 7.63636C27.1818 5.63636 25.5455 4 23.5455 4Z" fill="#999999"/>
</svg>
