<svg width="48" height="48" viewBox="0 0 48 48" fill="none" xmlns="http://www.w3.org/2000/svg">
<path d="M34.1111 21V25.3125C34.1111 27.9812 33.0458 30.5407 31.1496 32.4278C29.2534 34.3148 26.6816 35.375 24 35.375C21.3184 35.375 18.7466 34.3148 16.8504 32.4278C14.9542 30.5407 13.8889 27.9812 13.8889 25.3125V21H11V25.3125C11.0015 28.4938 12.1808 31.563 14.3124 33.9336C16.4441 36.3043 19.3787 37.8103 22.5556 38.1638V41.125H16.7778V44H31.2222V41.125H25.4444V38.1638C28.6213 37.8103 31.5559 36.3043 33.6876 33.9336C35.8192 31.563 36.9985 28.4938 37 25.3125V21H34.1111Z" fill="#999999"/>
<path d="M24 33C25.8565 33 27.637 32.2362 28.9497 30.8765C30.2625 29.5169 31 27.6728 31 25.75V11.25C31 9.32718 30.2625 7.48311 28.9497 6.12348C27.637 4.76384 25.8565 4 24 4C22.1435 4 20.363 4.76384 19.0503 6.12348C17.7375 7.48311 17 9.32718 17 11.25V25.75C17 27.6728 17.7375 29.5169 19.0503 30.8765C20.363 32.2362 22.1435 33 24 33Z" fill="#999999"/>
</svg>
