<svg width="48" height="48" viewBox="0 0 48 48" fill="none" xmlns="http://www.w3.org/2000/svg">
<path d="M4.57837 33.1348L4.74472 32.9685C21.9617 17.5813 38.0974 29.0593 42.672 32.9685C44.0859 34.2161 44.3355 36.4618 43.0047 37.9589L38.4301 42.5334C37.7647 43.1988 36.6835 43.4484 35.7686 43.0325L31.5267 41.1195C30.6949 40.7868 30.1127 39.8719 30.0296 38.957L30.0296 35.4637C26.2036 32.8021 21.2131 32.8021 17.3871 35.4637L17.304 39.0401C17.304 40.0382 16.7217 40.7868 15.8068 41.2027L11.3986 43.1157C10.5669 43.4484 9.5688 43.282 8.82023 42.5334L4.4952 38.2084C3.16441 36.7113 3.16442 34.5488 4.57837 33.1348V33.1348ZM41.1749 36.4618C41.6739 35.9627 41.6739 35.2973 41.1749 34.7983L41.0917 34.7151C35.7686 30.2237 21.7122 20.9914 6.32502 34.7151C5.82598 35.2141 5.82598 35.8795 6.15867 36.3786L10.6501 40.87L15.0583 38.957L15.0583 34.1329L15.4741 33.8834C23.6252 27.5622 31.8594 33.8002 31.9426 33.8834L32.4416 34.2161L32.5248 38.957L36.7666 40.87L41.1749 36.4618Z" fill="#999999"/>
<path fill-rule="evenodd" clip-rule="evenodd" d="M9.5 8C9.5 7.17157 10.1716 6.5 11 6.5H25V9.5H12.5V22H9.5V8Z" fill="#999999"/>
<path fill-rule="evenodd" clip-rule="evenodd" d="M25.5104 22.6109C24.9246 23.1967 23.9748 23.1967 23.389 22.6109L10.3388 9.56068L12.4601 7.43936L24.4497 19.429L36.4393 7.43936L38.5606 9.56068L25.5104 22.6109Z" fill="#999999"/>
</svg>
