<svg width="48" height="48" viewBox="0 0 48 48" fill="none" xmlns="http://www.w3.org/2000/svg">
<path fill-rule="evenodd" clip-rule="evenodd" d="M9.02977 33.7705C7.18707 36.8485 6.43028 40.5632 6.50495 42.9532C6.53082 43.7812 5.88055 44.4734 5.05253 44.4993C4.2245 44.5251 3.53228 43.8749 3.50641 43.0468C3.41445 40.1034 4.30741 35.8181 6.45576 32.2295C8.62797 28.6011 12.2164 25.5 17.5037 25.5H29C37.5045 25.5 44 32.546 44 43C44 43.8284 43.3284 44.5 42.5 44.5C41.6715 44.5 41 43.8284 41 43C41 33.8273 35.4955 28.5 29 28.5H17.5037C13.5926 28.5 10.8486 30.7323 9.02977 33.7705Z" fill="#999999"/>
<path fill-rule="evenodd" clip-rule="evenodd" d="M24 21C27.866 21 31 17.866 31 14C31 10.134 27.866 7 24 7C20.134 7 17 10.134 17 14C17 17.866 20.134 21 24 21ZM24 24C29.5228 24 34 19.5228 34 14C34 8.47715 29.5228 4 24 4C18.4772 4 14 8.47715 14 14C14 19.5228 18.4772 24 24 24Z" fill="#999999"/>
</svg>
