<svg width="48" height="48" viewBox="0 0 48 48" fill="none" xmlns="http://www.w3.org/2000/svg">
<path d="M39.2501 43.8379H38.9437C8.91203 42.1524 4.6218 16.7175 4.00891 8.90312C3.85569 6.45156 5.69436 4.15322 8.29914 4H16.7264C17.9522 4 19.1779 4.76611 19.6376 5.99189L21.7827 11.6611C22.2424 12.7337 21.936 14.1127 21.1698 15.032L17.9522 18.2497C19.0247 24.2254 23.6214 28.8221 29.5971 29.8946L32.968 26.6769C33.8873 25.7576 35.1131 25.6044 36.3389 26.0641L42.1613 28.3624C43.2339 28.8221 44 29.8946 44 31.2736V39.2412C43.8468 41.846 41.8549 43.8379 39.2501 43.8379Z" fill="#999999"/>
</svg>
