<svg width="48" height="48" viewBox="0 0 48 48" fill="none" xmlns="http://www.w3.org/2000/svg">
<path fill-rule="evenodd" clip-rule="evenodd" d="M14 7H11V9V13V22V26V35V39V41H14L14 7ZM17 7L17 41H40C40.5523 41 41 40.5523 41 40V8C41 7.44772 40.5523 7 40 7H17ZM8 4V9H4V13H8V22H4V26H8V35H4V39H8V44H40C42.2091 44 44 42.2091 44 40V8C44 5.79086 42.2091 4 40 4H8ZM31 20C31 22.7614 28.7614 25 26 25C23.2386 25 21 22.7614 21 20C21 17.2386 23.2386 15 26 15C28.7614 15 31 17.2386 31 20ZM33.4444 20.2222C33.4444 22.2142 32.3291 23.9457 30.6888 24.8263C31.1067 24.9396 31.5463 25 32 25C34.7614 25 37 22.7614 37 20C37 17.2386 34.7614 15 32 15C31.3398 15 30.7094 15.128 30.1324 15.3604C32.0717 16.123 33.4444 18.0123 33.4444 20.2222ZM19 35C19 30.5817 22.3579 27 26.5 27C30.6421 27 34 30.5817 34 35H19ZM35.5 35H39C39.3333 32.3333 37.5 27 31 27C34 28 36 32 35.5 35Z" fill="#999999"/>
</svg>
