<svg width="48" height="48" viewBox="0 0 48 48" fill="none" xmlns="http://www.w3.org/2000/svg">
<path fill-rule="evenodd" clip-rule="evenodd" d="M23.918 7.08247C21.3335 7.08247 19.2383 9.17764 19.2383 11.7622C19.2383 14.3467 21.3335 16.4418 23.918 16.4418C26.5025 16.4418 28.5977 14.3467 28.5977 11.7622C28.5977 9.17764 26.5025 7.08247 23.918 7.08247ZM16.1185 11.7622C16.1185 7.45462 19.6105 3.96268 23.918 3.96268C28.2255 3.96268 31.7175 7.45462 31.7175 11.7622C31.7175 16.0697 28.2255 19.5616 23.918 19.5616C19.6105 19.5616 16.1185 16.0697 16.1185 11.7622Z" fill="#999999"/>
<path fill-rule="evenodd" clip-rule="evenodd" d="M10.8276 16.0131C9.39181 16.0131 8.22782 17.1771 8.22782 18.613C8.22782 20.0488 9.39181 21.2128 10.8276 21.2128C12.2635 21.2128 13.4275 20.0488 13.4275 18.613C13.4275 17.1771 12.2635 16.0131 10.8276 16.0131ZM5.10803 18.613C5.10803 15.4541 7.66879 12.8933 10.8276 12.8933C13.9865 12.8933 16.5473 15.4541 16.5473 18.613C16.5473 21.7718 13.9865 24.3326 10.8276 24.3326C7.66879 24.3326 5.10803 21.7718 5.10803 18.613Z" fill="#999999"/>
<path fill-rule="evenodd" clip-rule="evenodd" d="M37.4371 16.0131C36.0013 16.0131 34.8373 17.1771 34.8373 18.613C34.8373 20.0488 36.0013 21.2128 37.4371 21.2128C38.873 21.2128 40.037 20.0488 40.037 18.613C40.037 17.1771 38.873 16.0131 37.4371 16.0131ZM31.7175 18.613C31.7175 15.4541 34.2783 12.8933 37.4371 12.8933C40.596 12.8933 43.1568 15.4541 43.1568 18.613C43.1568 21.7718 40.596 24.3326 37.4371 24.3326C34.2783 24.3326 31.7175 21.7718 31.7175 18.613Z" fill="#999999"/>
<path fill-rule="evenodd" clip-rule="evenodd" d="M9.60411 24.7613H11.9588C12.8203 24.7613 13.5187 25.4597 13.5187 26.3212C13.5187 27.1827 12.8203 27.8811 11.9588 27.8811H9.60392C9.1526 27.881 8.71571 28.0411 8.37132 28.3328C8.02703 28.6243 7.79731 29.0286 7.72299 29.4736L7.14583 32.94C7.10028 33.2132 7.11471 33.4934 7.18825 33.7604C7.26179 34.0274 7.39261 34.2751 7.57162 34.4864C7.75062 34.6977 7.9735 34.8675 8.22476 34.9839C8.47603 35.1003 8.74964 35.1606 9.02657 35.1606H11.5C12.3615 35.1606 13.0599 35.859 13.0599 36.7205C13.0599 37.582 12.3615 38.2804 11.5 38.2804H9.02695C8.29693 38.2804 7.57547 38.1215 6.91311 37.8146C6.25069 37.5076 5.66308 37.06 5.19117 36.503C4.71926 35.9459 4.37437 35.2928 4.18048 34.5889C3.98663 33.8851 3.94839 33.1476 4.06841 32.4276L4.64557 28.9612C4.84129 27.7876 5.44708 26.721 6.35503 25.9521C7.26293 25.1831 8.41435 24.7612 9.60411 24.7613ZM33.7973 26.3212C33.7973 25.4597 34.4957 24.7613 35.3572 24.7613H38.3959C39.5857 24.7612 40.7371 25.1831 41.645 25.9521C42.553 26.721 43.1587 27.7872 43.3544 28.9608L43.9316 32.4272C44.0516 33.1472 44.0134 33.8852 43.8196 34.5889C43.6257 35.2927 43.2808 35.9459 42.8089 36.503C42.337 37.06 41.7494 37.5076 41.0869 37.8146C40.4246 38.1215 39.7033 38.2804 38.9733 38.2804H35.5C34.6385 38.2804 33.9401 37.582 33.9401 36.7205C33.9401 35.859 34.6385 35.1606 35.5 35.1606H38.9733C39.2502 35.1606 39.524 35.1003 39.7753 34.9839C40.0265 34.8675 40.2494 34.6977 40.4284 34.4864C40.6074 34.2751 40.7383 34.0274 40.8118 33.7604C40.8853 33.4934 40.8998 33.2136 40.8543 32.9404L40.2771 29.474C40.2029 29.0288 39.9731 28.6244 39.6287 28.3328C39.2843 28.0411 38.8476 27.881 38.3963 27.8811H35.3572C34.4957 27.8811 33.7973 27.1827 33.7973 26.3212Z" fill="#999999"/>
<path fill-rule="evenodd" clip-rule="evenodd" d="M16.2259 23.6879C16.4991 21.9123 18.0269 20.6016 19.8234 20.6016H27.6939C29.4904 20.6016 31.0182 21.9123 31.2913 23.6879L33.7712 39.8068C34.1104 42.0116 32.4045 44 30.1737 44H17.3435C15.1128 44 13.4069 42.0116 13.7461 39.8068L16.2259 23.6879ZM19.8234 23.7214C19.5667 23.7214 19.3485 23.9086 19.3095 24.1623L16.8296 40.2812C16.7812 40.5962 17.0249 40.8802 17.3435 40.8802H30.1737C30.4924 40.8802 30.7361 40.5962 30.6877 40.2812L28.2078 24.1623C28.1688 23.9086 27.9505 23.7214 27.6939 23.7214H19.8234Z" fill="#999999"/>
</svg>
