<svg width="48" height="48" viewBox="0 0 48 48" fill="none" xmlns="http://www.w3.org/2000/svg">
<path fill-rule="evenodd" clip-rule="evenodd" d="M4 24.5C4 23.6716 4.65519 23 5.46341 23H42.5366C43.3448 23 44 23.6716 44 24.5C44 25.3284 43.3448 26 42.5366 26H5.46341C4.65519 26 4 25.3284 4 24.5Z" fill="#999999"/>
<path fill-rule="evenodd" clip-rule="evenodd" d="M24.5 44C23.6716 44 23 43.3448 23 42.5366L23 5.46341C23 4.65519 23.6716 4 24.5 4C25.3284 4 26 4.65519 26 5.46341L26 42.5366C26 43.3448 25.3284 44 24.5 44Z" fill="#999999"/>
</svg>
