<svg width="48" height="48" viewBox="0 0 48 48" fill="none" xmlns="http://www.w3.org/2000/svg">
<path d="M39.2501 43.8379H38.9437C8.91203 42.1524 4.6218 16.7175 4.00891 8.90312C3.85569 6.45156 5.69436 4.15322 8.29914 4H16.7264C17.9522 4 19.1779 4.76611 19.6376 5.99189L21.7827 11.6611C22.2424 12.7337 21.9359 14.1127 21.1698 15.032L17.9522 18.2497C19.0247 24.2254 23.6214 28.8221 29.5971 29.8946L32.968 26.6769C33.8873 25.7576 35.1131 25.6044 36.3389 26.064L42.1613 28.3624C43.2339 28.8221 44 29.8946 44 31.2736V39.2412C43.8468 41.846 41.8549 43.8379 39.2501 43.8379V43.8379ZM8.60559 7.06445C7.68625 7.06445 7.07336 7.67734 7.07336 8.59668V8.7499C7.83947 17.79 12.2829 39.2412 39.0969 40.7734C40.0162 40.7734 40.6291 40.1605 40.7823 39.3944V31.1204L34.9599 28.8221L30.5164 33.2655L29.9035 33.1123C16.5732 31.4268 14.7345 18.0965 14.7345 17.9433L14.5813 17.1771L18.8715 12.7337L16.7264 7.06445H8.60559Z" fill="#999999"/>
<path fill-rule="evenodd" clip-rule="evenodd" d="M24.9393 20.4393L41.4393 3.93933L43.5606 6.06065L27.0607 22.5606L24.9393 20.4393Z" fill="#999999"/>
<path fill-rule="evenodd" clip-rule="evenodd" d="M27.0607 3.93933L43.5607 20.4393L41.4393 22.5606L24.9394 6.06065L27.0607 3.93933Z" fill="#999999"/>
</svg>
