<svg width="48" height="48" viewBox="0 0 48 48" fill="none" xmlns="http://www.w3.org/2000/svg">
<path fill-rule="evenodd" clip-rule="evenodd" d="M35.1276 6.15496C39.824 13.4991 42.7944 26.9932 35.032 42.1666L38.593 43.9884C47.0306 27.4951 43.9261 12.4892 38.4975 4L35.1276 6.15496ZM30.0249 38.1807C36.1788 25.914 33.8123 15.0309 30.1182 9.14004L33.507 7.01494C37.9128 14.0407 40.4063 26.4076 33.6002 39.9743L30.0249 38.1807ZM11.4118 21.8065C12.1677 21.8065 12.8957 21.5211 13.4503 21.0075L19 15.8675V33.8855L13.506 28.5293C12.9457 27.9831 12.1942 27.6774 11.4118 27.6774H7V21.8065H11.4118ZM4 18.8065H11.4118L22 9V41L11.4118 30.6774H4V18.8065ZM24.0848 12.0851C26.803 16.7459 28.5736 25.4291 24 35.2319L27.6249 36.9231C32.7713 25.8925 30.8969 15.8257 27.5401 10.0699L24.0848 12.0851Z" fill="#999999"/>
</svg>
