<svg width="48" height="48" viewBox="0 0 48 48" fill="none" xmlns="http://www.w3.org/2000/svg">
<path d="M31.5 36C34.8152 36 37.9946 34.683 40.3388 32.3388C42.683 29.9946 44 26.8152 44 23.5C44 20.1848 42.683 17.0054 40.3388 14.6612C37.9946 12.317 34.8152 11 31.5 11L16.5 11C13.1848 11 10.0054 12.317 7.66116 14.6612C5.31696 17.0054 4 20.1848 4 23.5C4 26.8152 5.31696 29.9946 7.66116 32.3388C10.0054 34.683 13.1848 36 16.5 36L31.5 36ZM16.5 13.5C19.1522 13.5 21.6957 14.5536 23.5711 16.4289C25.4464 18.3043 26.5 20.8478 26.5 23.5C26.5 26.1522 25.4464 28.6957 23.5711 30.5711C21.6957 32.4464 19.1522 33.5 16.5 33.5C13.8478 33.5 11.3043 32.4464 9.42893 30.5711C7.55357 28.6957 6.5 26.1522 6.5 23.5C6.5 20.8478 7.55357 18.3043 9.42893 16.4289C11.3043 14.5536 13.8478 13.5 16.5 13.5Z" fill="#05B2DC"/>
</svg>
