<svg width="48" height="48" viewBox="0 0 48 48" fill="none" xmlns="http://www.w3.org/2000/svg">
<path d="M41.8571 33.0759L36.1429 29.7857V36.5714C36.1429 38.1473 34.8616 39.4286 33.2857 39.4286H6.85714C5.28125 39.4286 4 38.1473 4 36.5714V10.8571C4 9.28124 5.28125 7.99999 6.85714 7.99999H33.2857C34.8616 7.99999 36.1429 9.28124 36.1429 10.8571V17.6428L41.8571 14.3527C42.808 13.8036 44 14.4911 44 15.5848V31.8393C44 32.9375 42.808 33.625 41.8571 33.0759ZM40.7857 18.6696L36.1429 21.3393V26.0848L40.7857 28.7589V18.6696Z" fill="#999999"/>
<path d="M19.4464 30.3571H10.6964C10.3527 30.3571 10.0714 30.5259 10.0714 30.7321V32.9821C10.0714 33.1884 10.3527 33.3571 10.6964 33.3571H19.4464C19.7902 33.3571 20.0714 33.1884 20.0714 32.9821V30.7321C20.0714 30.5259 19.7902 30.3571 19.4464 30.3571Z" fill="white"/>
</svg>
