<svg width="31" height="30" viewBox="0 0 31 30" fill="none" xmlns="http://www.w3.org/2000/svg">
<path d="M15.5454 22.8997C14.3041 22.8997 13.2884 23.9153 13.2884 25.1567C13.2884 26.3981 14.3041 27.4138 15.5454 27.4138C16.7868 27.4138 17.8025 26.3981 17.8025 25.1567C17.8025 23.9153 16.7868 22.8997 15.5454 22.8997ZM8.77429 2.58618C7.53291 2.58618 6.51723 3.60186 6.51723 4.84324C6.51723 6.08461 7.53291 7.10029 8.77429 7.10029C10.0157 7.10029 11.0313 6.08461 11.0313 4.84324C11.0313 3.60186 10.0157 2.58618 8.77429 2.58618ZM8.77429 9.35734C7.53291 9.35734 6.51723 10.373 6.51723 11.6144C6.51723 12.8558 7.53291 13.8714 8.77429 13.8714C10.0157 13.8714 11.0313 12.8558 11.0313 11.6144C11.0313 10.373 10.0157 9.35734 8.77429 9.35734ZM8.77429 16.1285C7.53291 16.1285 6.51723 17.1442 6.51723 18.3856C6.51723 19.6269 7.53291 20.6426 8.77429 20.6426C10.0157 20.6426 11.0313 19.6269 11.0313 18.3856C11.0313 17.1442 10.0157 16.1285 8.77429 16.1285ZM22.3166 7.10029C23.558 7.10029 24.5737 6.08461 24.5737 4.84324C24.5737 3.60186 23.558 2.58618 22.3166 2.58618C21.0752 2.58618 20.0596 3.60186 20.0596 4.84324C20.0596 6.08461 21.0752 7.10029 22.3166 7.10029ZM15.5454 16.1285C14.3041 16.1285 13.2884 17.1442 13.2884 18.3856C13.2884 19.6269 14.3041 20.6426 15.5454 20.6426C16.7868 20.6426 17.8025 19.6269 17.8025 18.3856C17.8025 17.1442 16.7868 16.1285 15.5454 16.1285ZM22.3166 16.1285C21.0752 16.1285 20.0596 17.1442 20.0596 18.3856C20.0596 19.6269 21.0752 20.6426 22.3166 20.6426C23.558 20.6426 24.5737 19.6269 24.5737 18.3856C24.5737 17.1442 23.558 16.1285 22.3166 16.1285ZM22.3166 9.35734C21.0752 9.35734 20.0596 10.373 20.0596 11.6144C20.0596 12.8558 21.0752 13.8714 22.3166 13.8714C23.558 13.8714 24.5737 12.8558 24.5737 11.6144C24.5737 10.373 23.558 9.35734 22.3166 9.35734ZM15.5454 9.35734C14.3041 9.35734 13.2884 10.373 13.2884 11.6144C13.2884 12.8558 14.3041 13.8714 15.5454 13.8714C16.7868 13.8714 17.8025 12.8558 17.8025 11.6144C17.8025 10.373 16.7868 9.35734 15.5454 9.35734ZM15.5454 2.58618C14.3041 2.58618 13.2884 3.60186 13.2884 4.84324C13.2884 6.08461 14.3041 7.10029 15.5454 7.10029C16.7868 7.10029 17.8025 6.08461 17.8025 4.84324C17.8025 3.60186 16.7868 2.58618 15.5454 2.58618Z" fill="#B0C1C7"/>
</svg>
