<svg width="31" height="30" viewBox="0 0 31 30" fill="none" xmlns="http://www.w3.org/2000/svg">
<path fill-rule="evenodd" clip-rule="evenodd" d="M12.8031 5.16406C7.19617 6.66644 3.86874 12.4297 5.37112 18.0367C5.75007 19.451 6.39902 20.7183 7.24712 21.7998L11.5643 17.4826V25.6331H3.41378L5.88753 23.1594C4.81269 21.8402 3.99336 20.2784 3.52524 18.5313C1.74969 11.9049 5.68211 5.09373 12.3085 3.31818C18.935 1.54263 25.7461 5.47505 27.5217 12.1015C29.2972 18.7279 25.3648 25.5391 18.7384 27.3146L18.2438 25.4687C23.8507 23.9663 27.1782 18.2031 25.6758 12.5961C24.1734 6.9891 18.4101 3.66167 12.8031 5.16406ZM14.5862 8.17223C15.1004 8.17223 15.5172 8.58907 15.5172 9.10327V14.9245L20.21 19.6173C20.5736 19.9809 20.5736 20.5704 20.21 20.934C19.8465 21.2976 19.257 21.2976 18.8934 20.934L13.9279 15.9685C13.7532 15.7939 13.6552 15.5571 13.6552 15.3102V9.10327C13.6552 8.58907 14.072 8.17223 14.5862 8.17223Z" fill="#B0C1C7"/>
</svg>
