<svg width="48" height="48" viewBox="0 0 48 48" fill="none" xmlns="http://www.w3.org/2000/svg">
<path d="M18.2857 22.5714C19.0435 22.5714 19.7702 22.2704 20.306 21.7346C20.8418 21.1988 21.1429 20.472 21.1429 19.7143C21.1429 18.9565 20.8418 18.2298 20.306 17.694C19.7702 17.1582 19.0435 16.8571 18.2857 16.8571C17.528 16.8571 16.8012 17.1582 16.2654 17.694C15.7296 18.2298 15.4286 18.9565 15.4286 19.7143C15.4286 20.472 15.7296 21.1988 16.2654 21.7346C16.8012 22.2704 17.528 22.5714 18.2857 22.5714ZM32.5714 19.7143C32.5714 20.472 32.2704 21.1988 31.7346 21.7346C31.1988 22.2704 30.472 22.5714 29.7143 22.5714C28.9565 22.5714 28.2298 22.2704 27.694 21.7346C27.1582 21.1988 26.8571 20.472 26.8571 19.7143C26.8571 18.9565 27.1582 18.2298 27.694 17.694C28.2298 17.1582 28.9565 16.8571 29.7143 16.8571C30.472 16.8571 31.1988 17.1582 31.7346 17.694C32.2704 18.2298 32.5714 18.9565 32.5714 19.7143ZM14.79 28.4371C15.1271 28.2686 15.5171 28.2401 15.8752 28.3578C16.2332 28.4756 16.5302 28.73 16.7014 29.0657L16.7057 29.0743L16.7543 29.1571C16.8043 29.2386 16.8871 29.3657 17.0071 29.5271C17.2486 29.8486 17.6357 30.2929 18.1957 30.7414C19.3 31.6243 21.1329 32.5714 24 32.5714C26.8671 32.5714 28.7 31.6243 29.8043 30.7429C30.3657 30.2929 30.7529 29.8486 30.9929 29.5271C31.1021 29.3822 31.2028 29.231 31.2943 29.0743L31.3 29.0643C31.4723 28.7287 31.7704 28.4749 32.1292 28.3583C32.488 28.2417 32.8784 28.2717 33.2151 28.4419C33.5518 28.612 33.8075 28.9085 33.9265 29.2665C34.0454 29.6245 34.0179 30.015 33.85 30.3529V30.3543L33.8471 30.3571V30.36L33.8414 30.3686L33.83 30.39C33.7856 30.4751 33.738 30.5585 33.6871 30.64C33.5618 30.8468 33.4259 31.0471 33.28 31.24C32.7911 31.8863 32.2229 32.4685 31.5886 32.9729C30.0143 34.2329 27.5614 35.4286 24 35.4286C20.4386 35.4286 17.9857 34.2329 16.4114 32.9714C15.7778 32.4679 15.21 31.8866 14.7214 31.2414C14.5186 30.9704 14.3343 30.686 14.17 30.39L14.1586 30.3686L14.1543 30.36L14.1529 30.3557L14.1514 30.3529C13.9823 30.0141 13.9545 29.6221 14.0742 29.2628C14.194 28.9036 14.4514 28.6066 14.79 28.4371V28.4371ZM24 4C12.9543 4 4 12.9543 4 24C4 35.0457 12.9543 44 24 44C35.0457 44 44 35.0457 44 24C44 12.9543 35.0457 4 24 4ZM6.85714 24C6.85714 14.5329 14.5329 6.85714 24 6.85714C33.4671 6.85714 41.1429 14.5329 41.1429 24C41.1429 33.4671 33.4671 41.1429 24 41.1429C14.5329 41.1429 6.85714 33.4671 6.85714 24Z" fill="#999999"/>
</svg>
