<svg width="48" height="48" viewBox="0 0 48 48" fill="none" xmlns="http://www.w3.org/2000/svg">
<path fill-rule="evenodd" clip-rule="evenodd" d="M20.5 34C27.9558 34 34 27.9558 34 20.5C34 13.0442 27.9558 7 20.5 7C13.0442 7 7 13.0442 7 20.5C7 27.9558 13.0442 34 20.5 34ZM20.5 37C29.6127 37 37 29.6127 37 20.5C37 11.3873 29.6127 4 20.5 4C11.3873 4 4 11.3873 4 20.5C4 29.6127 11.3873 37 20.5 37Z" fill="#999999"/>
<path fill-rule="evenodd" clip-rule="evenodd" d="M29.9393 29.9393C30.5251 29.3536 31.4749 29.3536 32.0607 29.9393L43.0607 40.9393C43.6464 41.5251 43.6464 42.4749 43.0607 43.0607C42.4749 43.6464 41.5251 43.6464 40.9393 43.0607L29.9393 32.0607C29.3536 31.4749 29.3536 30.5251 29.9393 29.9393Z" fill="#999999"/>
</svg>
