<svg width="48" height="48" viewBox="0 0 48 48" fill="none" xmlns="http://www.w3.org/2000/svg">
<path d="M16.5 11C13.1848 11 10.0054 12.317 7.66117 14.6612C5.31696 17.0054 4 20.1848 4 23.5C4 26.8152 5.31696 29.9946 7.66117 32.3388C10.0054 34.683 13.1848 36 16.5 36H31.5C34.8152 36 37.9946 34.683 40.3388 32.3388C42.683 29.9946 44 26.8152 44 23.5C44 20.1848 42.683 17.0054 40.3388 14.6612C37.9946 12.317 34.8152 11 31.5 11L16.5 11ZM31.5 33.5C28.8478 33.5 26.3043 32.4464 24.4289 30.5711C22.5536 28.6957 21.5 26.1522 21.5 23.5C21.5 20.8478 22.5536 18.3043 24.4289 16.4289C26.3043 14.5536 28.8478 13.5 31.5 13.5C34.1522 13.5 36.6957 14.5536 38.5711 16.4289C40.4464 18.3043 41.5 20.8478 41.5 23.5C41.5 26.1522 40.4464 28.6957 38.5711 30.5711C36.6957 32.4464 34.1522 33.5 31.5 33.5Z" fill="#B0C1C7"/>
</svg>
