<svg width="48" height="48" viewBox="0 0 48 48" fill="none" xmlns="http://www.w3.org/2000/svg">
<path d="M6.06766 4.1509C5.82851 4.03129 5.56059 3.9812 5.29438 4.00632C5.02817 4.03144 4.77435 4.13078 4.5618 4.29302C4.34926 4.45526 4.18651 4.67389 4.09207 4.92405C3.99763 5.17421 3.97529 5.44586 4.0276 5.70809L8.03628 19.5656C8.11103 19.8238 8.25713 20.0558 8.45778 20.2347C8.65844 20.4136 8.90551 20.5323 9.1706 20.5771L25.4282 23.3C26.1939 23.4514 26.1939 24.5486 25.4282 24.7L9.1706 27.423C8.90551 27.4677 8.65844 27.5864 8.45778 27.7653C8.25713 27.9443 8.11103 28.1762 8.03628 28.4344L4.0276 42.2919C3.97529 42.5542 3.99763 42.8258 4.09207 43.076C4.18651 43.3261 4.34926 43.5448 4.5618 43.707C4.77435 43.8692 5.02817 43.9686 5.29438 43.9937C5.56059 44.0188 5.82851 43.9687 6.06766 43.8491L43.2115 25.2772C43.4485 25.1584 43.6477 24.976 43.787 24.7505C43.9262 24.5249 44 24.2651 44 24C44 23.7349 43.9262 23.4751 43.787 23.2495C43.6477 23.024 43.4485 22.8416 43.2115 22.7228L6.06766 4.1509V4.1509Z" fill="#999999"/>
</svg>
