<svg width="48" height="48" viewBox="0 0 48 48" fill="none" xmlns="http://www.w3.org/2000/svg">
<path fill-rule="evenodd" clip-rule="evenodd" d="M41 24C41 33.3888 33.3888 41 24 41C19.8456 41 16.0393 39.5098 13.0864 37.0349L37.0349 13.0864C39.5098 16.0393 41 19.8456 41 24ZM10.9651 34.9135L34.9135 10.9651C31.9606 8.49016 28.1543 7 24 7C14.6112 7 7 14.6112 7 24C7 28.1543 8.49016 31.9606 10.9651 34.9135ZM24 44C35.0457 44 44 35.0457 44 24C44 12.9543 35.0457 4 24 4C12.9543 4 4 12.9543 4 24C4 35.0457 12.9543 44 24 44Z" fill="#999999"/>
</svg>
