<svg width="48" height="48" viewBox="0 0 48 48" fill="none" xmlns="http://www.w3.org/2000/svg">
<path fill-rule="evenodd" clip-rule="evenodd" d="M18 29.5C12.1205 29.5 6.50426 35.1584 6.50427 43C6.50427 43.8284 5.8327 44.5 5.00427 44.5C4.17585 44.5 3.50427 43.8284 3.50427 43C3.50426 33.8416 10.1429 26.5 18 26.5H20.5C23.6408 26.5 27.1594 27.6197 29.8996 30.3033C32.6617 33.0085 34.5 37.1709 34.5 43C34.5 43.8284 33.8284 44.5 33 44.5C32.1716 44.5 31.5 43.8284 31.5 43C31.5 37.8291 29.8884 34.4915 27.8005 32.4467C25.6907 30.3803 22.9592 29.5 20.5 29.5H18Z" fill="#999999"/>
<path fill-rule="evenodd" clip-rule="evenodd" d="M18 22C21.866 22 25 18.866 25 15C25 11.134 21.866 8 18 8C14.134 8 11 11.134 11 15C11 18.866 14.134 22 18 22ZM18 25C23.5228 25 28 20.5228 28 15C28 9.47715 23.5228 5 18 5C12.4772 5 8 9.47715 8 15C8 20.5228 12.4772 25 18 25Z" fill="#999999"/>
<path fill-rule="evenodd" clip-rule="evenodd" d="M31.471 10.7538C31.1656 10.8025 30.8721 10.8782 30.5919 10.9781C29.8116 11.2563 28.9535 10.8492 28.6753 10.0689C28.3971 9.28856 28.8042 8.43048 29.5845 8.15229C30.0376 7.9908 30.5102 7.86905 30.9991 7.79118C35.5246 7.07036 39.685 10.3293 40.4129 14.8989C41.1407 19.4685 38.1987 23.8587 33.6731 24.5796C31.6609 24.9001 29.7035 24.4264 28.0992 23.3992C27.4015 22.9525 27.1981 22.0248 27.6448 21.3271C28.0915 20.6294 29.0192 20.426 29.7169 20.8727C30.7393 21.5274 31.9584 21.8149 33.2013 21.6169C35.9608 21.1774 37.9386 18.4369 37.4502 15.3708C36.9619 12.3047 34.2306 10.3143 31.471 10.7538Z" fill="#999999"/>
<path fill-rule="evenodd" clip-rule="evenodd" d="M31.5 29C31.5 28.1716 32.1716 27.5 33 27.5C37.6686 27.5 40.6437 30.0809 42.3568 33.1426C44.0319 36.1363 44.5675 39.6685 44.493 42.047C44.467 42.875 43.7748 43.5252 42.9467 43.4993C42.1187 43.4733 41.4685 42.7811 41.4944 41.953C41.5557 39.9982 41.0944 37.0303 39.7387 34.6074C38.421 32.2524 36.3314 30.5 33 30.5C32.1716 30.5 31.5 29.8284 31.5 29Z" fill="#999999"/>
</svg>
