<svg width="48" height="48" viewBox="0 0 48 48" fill="none" xmlns="http://www.w3.org/2000/svg">
<path fill-rule="evenodd" clip-rule="evenodd" d="M37.7143 35.2857H28.2857V32.1428H37.7143V35.2857Z" fill="#FB6376"/>
<path fill-rule="evenodd" clip-rule="evenodd" d="M31.4286 38.4286V29L34.5714 29V38.4286H31.4286Z" fill="#FB6376"/>
<path fill-rule="evenodd" clip-rule="evenodd" d="M37.9047 28H28.0952C27.5429 28 27.0952 28.4477 27.0952 29V40.5H38.9047V29C38.9047 28.4477 38.457 28 37.9047 28ZM28.0952 25C25.8861 25 24.0952 26.7909 24.0952 29V43.5H41.9047V29C41.9047 26.7909 40.1138 25 37.9047 25H28.0952Z" fill="#FB6376"/>
<path fill-rule="evenodd" clip-rule="evenodd" d="M44 44H22V41H44V44Z" fill="#FB6376"/>
<path fill-rule="evenodd" clip-rule="evenodd" d="M24.5 21C28.366 21 31.5 17.866 31.5 14C31.5 10.134 28.366 7 24.5 7C20.634 7 17.5 10.134 17.5 14C17.5 17.866 20.634 21 24.5 21ZM24.5 24C30.0228 24 34.5 19.5228 34.5 14C34.5 8.47715 30.0228 4 24.5 4C18.9772 4 14.5 8.47715 14.5 14C14.5 19.5228 18.9772 24 24.5 24Z" fill="#999999"/>
<path d="M22 25H18.0037C12.7164 25 9.12797 28.1011 6.95576 31.7295C4.80741 35.3181 3.91445 39.6034 4.00641 42.5468C4.03228 43.3749 4.7245 44.0251 5.55253 43.9993C6.38055 43.9734 7.03082 43.2812 7.00495 42.4532C6.93028 40.0632 7.68707 36.3485 9.52977 33.2705C11.3486 30.2323 14.0926 28 18.0037 28H22V25Z" fill="#999999"/>
</svg>
