<svg width="48" height="48" viewBox="0 0 48 48" fill="none" xmlns="http://www.w3.org/2000/svg">
<path d="M40.2963 11.3846H34L32.5 7.01923C32.3964 6.72052 32.2065 6.46232 31.9562 6.27989C31.706 6.09747 31.4076 5.99972 31.1019 6H16.8981C16.2731 6 15.713 6.40865 15.5046 7.01923L14 11.3846H7.7037C5.65741 11.3846 4 13.1058 4 15.2308V37.1538C4 39.2788 5.65741 41 7.7037 41H40.2963C42.3426 41 44 39.2788 44 37.1538V15.2308C44 13.1058 42.3426 11.3846 40.2963 11.3846ZM40.6667 37.1538C40.6667 37.3654 40.5 37.5385 40.2963 37.5385H7.7037C7.5 37.5385 7.33333 37.3654 7.33333 37.1538V15.2308C7.33333 15.0192 7.5 14.8462 7.7037 14.8462H16.3472L17.1389 12.5481L18.1991 9.46154H29.7963L30.8565 12.5481L31.6481 14.8462H40.2963C40.5 14.8462 40.6667 15.0192 40.6667 15.2308V37.1538ZM24 17.9231C19.9074 17.9231 16.5926 21.3654 16.5926 25.6154C16.5926 29.8654 19.9074 33.3077 24 33.3077C28.0926 33.3077 31.4074 29.8654 31.4074 25.6154C31.4074 21.3654 28.0926 17.9231 24 17.9231ZM24 30.2308C21.5463 30.2308 19.5556 28.1635 19.5556 25.6154C19.5556 23.0673 21.5463 21 24 21C26.4537 21 28.4444 23.0673 28.4444 25.6154C28.4444 28.1635 26.4537 30.2308 24 30.2308Z" fill="#999999"/>
</svg>
