<svg width="48" height="48" viewBox="0 0 48 48" fill="none" xmlns="http://www.w3.org/2000/svg">
<path fill-rule="evenodd" clip-rule="evenodd" d="M23.5 21C25.9853 21 28 18.9853 28 16.5C28 14.0147 25.9853 12 23.5 12C21.0147 12 19 14.0147 19 16.5C19 18.9853 21.0147 21 23.5 21ZM31 16.5C31 20.6421 27.6421 24 23.5 24C19.3579 24 16 20.6421 16 16.5C16 12.3579 19.3579 9 23.5 9C27.6421 9 31 12.3579 31 16.5Z" fill="#999999"/>
<path fill-rule="evenodd" clip-rule="evenodd" d="M24.9173 35.5781C27.1798 31.508 29.9298 26.2597 31.9756 21.4062C35.3392 13.4262 29.8303 7 23.5 7C17.1697 7 11.6608 13.4262 15.0244 21.4062C17.0702 26.2597 19.8202 31.508 22.0827 35.5781C22.5856 36.4827 23.0625 37.3259 23.5 38.0898C23.9375 37.3259 24.4144 36.4827 24.9173 35.5781ZM25.2405 41.0742C27.5953 37.0341 31.8351 29.4635 34.7401 22.5714C38.9551 12.5714 31.9301 4 23.5 4C15.0699 4 8.04488 12.5714 12.2599 22.5714C15.1649 29.4635 19.4047 37.0341 21.7595 41.0742C22.8214 42.8961 23.5 44 23.5 44C23.5 44 24.1786 42.8961 25.2405 41.0742Z" fill="#999999"/>
</svg>
