<svg width="48" height="48" viewBox="0 0 48 48" fill="none" xmlns="http://www.w3.org/2000/svg">
<path fill-rule="evenodd" clip-rule="evenodd" d="M20.4474 4.82327C21.6011 4.61074 22.7887 4.5 24 4.5C25.2113 4.5 26.3989 4.61074 27.5526 4.82327L29.9594 5.26667L29.2377 9.18418C29.7631 9.3699 30.2755 9.58273 30.7734 9.82097L33.0317 6.54135L35.0474 7.92932C37.0129 9.28272 38.7173 10.9871 40.0707 12.9526L41.4587 14.9683L38.179 17.2266C38.4173 17.7245 38.6301 18.2369 38.8158 18.7623L42.7333 18.0406L43.1767 20.4474C43.3893 21.6011 43.5 22.7887 43.5 24C43.5 25.2113 43.3893 26.3989 43.1767 27.5526L42.7333 29.9594L38.8158 29.2377C38.6301 29.7631 38.4173 30.2755 38.179 30.7734L41.4587 33.0317L40.0707 35.0474C38.7173 37.0129 37.0129 38.7173 35.0474 40.0707L33.0317 41.4587L30.7734 38.179C30.2755 38.4173 29.7631 38.6301 29.2377 38.8158L29.9594 42.7333L27.5526 43.1767C26.3989 43.3893 25.2113 43.5 24 43.5C22.7887 43.5 21.6011 43.3893 20.4474 43.1767L18.0406 42.7333L18.7623 38.8158C18.2369 38.6301 17.7245 38.4173 17.2266 38.179L14.9683 41.4587L12.9526 40.0707C10.9871 38.7173 9.28272 37.0129 7.92932 35.0474L6.54135 33.0317L9.82097 30.7734C9.58273 30.2755 9.3699 29.7631 9.18418 29.2377L5.26667 29.9594L4.82327 27.5526C4.61074 26.3989 4.5 25.2113 4.5 24C4.5 22.7887 4.61074 21.6011 4.82327 20.4474L5.26667 18.0406L9.18418 18.7623C9.3699 18.2369 9.58273 17.7245 9.82097 17.2266L6.54135 14.9683L7.92932 12.9526C9.28272 10.9871 10.9871 9.28272 12.9526 7.92933L14.9683 6.54135L17.2266 9.82097C17.7245 9.58273 18.2369 9.3699 18.7623 9.18418L18.0406 5.26667L20.4474 4.82327ZM21.5361 40.3174C22.3397 40.4376 23.1624 40.5 24 40.5C24.8376 40.5 25.6604 40.4376 26.4639 40.3174L25.7908 36.6639L27.1496 36.3176C28.3358 36.0153 29.4557 35.5459 30.4829 34.9355L31.6889 34.2188L33.7959 37.2788C35.1231 36.298 36.298 35.1231 37.2788 33.7959L34.2188 31.6889L34.9355 30.4829C35.5459 29.4557 36.0153 28.3358 36.3176 27.1496L36.6639 25.7908L40.3174 26.4639C40.4376 25.6603 40.5 24.8376 40.5 24C40.5 23.1624 40.4376 22.3397 40.3174 21.5361L36.6639 22.2092L36.3176 20.8504C36.0153 19.6642 35.5459 18.5443 34.9355 17.5171L34.2188 16.3111L37.2788 14.2041C36.298 12.8769 35.1231 11.702 33.7959 10.7212L31.6889 13.7812L30.4829 13.0645C29.4557 12.4541 28.3358 11.9847 27.1496 11.6824L25.7908 11.3361L26.4639 7.68264C25.6603 7.56237 24.8376 7.5 24 7.5C23.1624 7.5 22.3397 7.56237 21.5361 7.68264L22.2092 11.3361L20.8504 11.6824C19.6642 11.9847 18.5443 12.4541 17.5171 13.0645L16.3111 13.7812L14.2041 10.7212C12.8769 11.702 11.702 12.8769 10.7212 14.2041L13.7812 16.3111L13.0645 17.5171C12.4541 18.5443 11.9847 19.6642 11.6824 20.8504L11.3361 22.2092L7.68264 21.5361C7.56237 22.3397 7.5 23.1624 7.5 24C7.5 24.8376 7.56237 25.6603 7.68264 26.4639L11.3361 25.7908L11.6824 27.1496C11.9847 28.3358 12.4541 29.4557 13.0645 30.4829L13.7812 31.6889L10.7212 33.7959C11.702 35.1231 12.8769 36.298 14.2041 37.2788L16.3111 34.2188L17.5171 34.9355C18.5443 35.5459 19.6642 36.0153 20.8504 36.3176L22.2092 36.6639L21.5361 40.3174Z" fill="#999999"/>
<path fill-rule="evenodd" clip-rule="evenodd" d="M27.5355 27.5355C28.4732 26.5979 29 25.3261 29 24C29 22.6739 28.4732 21.4021 27.5355 20.4645C26.5979 19.5268 25.3261 19 24 19C22.6739 19 21.4021 19.5268 20.4645 20.4645C19.5268 21.4021 19 22.6739 19 24C19 25.3261 19.5268 26.5979 20.4645 27.5355C21.4021 28.4732 22.6739 29 24 29C25.3261 29 26.5979 28.4732 27.5355 27.5355ZM29.6569 29.6569C31.1571 28.1566 32 26.1217 32 24C32 21.8783 31.1571 19.8434 29.6569 18.3431C28.1566 16.8429 26.1217 16 24 16C21.8783 16 19.8434 16.8429 18.3431 18.3431C16.8429 19.8434 16 21.8783 16 24C16 26.1217 16.8429 28.1566 18.3431 29.6569C19.8434 31.1571 21.8783 32 24 32C26.1217 32 28.1566 31.1571 29.6569 29.6569Z" fill="#999999"/>
</svg>
