<svg width="32" height="32" viewBox="0 0 32 32" fill="none" xmlns="http://www.w3.org/2000/svg">
<circle cx="16" cy="8.66675" r="6" fill="#FB6376"/>
<path d="M7.84569 18.7945C8.6159 18.7945 9.25162 18.8878 9.75286 19.0743C10.2582 19.2609 10.6331 19.5447 10.8776 19.9259C11.1262 20.3071 11.2505 20.7918 11.2505 21.3798C11.2505 21.8178 11.169 22.1909 11.006 22.4991C10.843 22.8073 10.629 23.0628 10.3641 23.2656C10.0992 23.4683 9.81602 23.6305 9.51446 23.7522L12.0512 27.6879H10.3947L8.23691 24.1233H6.80042V27.6879H5.33337V18.7945H7.84569ZM7.74789 20.0111H6.80042V22.9188H7.81513C8.49568 22.9188 8.98877 22.7931 9.29441 22.5417C9.60412 22.2902 9.75897 21.9192 9.75897 21.4285C9.75897 20.9134 9.59393 20.5484 9.26384 20.3335C8.93783 20.1186 8.43251 20.0111 7.74789 20.0111Z" fill="#4B4B4B"/>
<path d="M18.3901 27.6879H13.3288V18.7945H18.3901V20.0233H14.7958V22.4383H18.1639V23.661H14.7958V26.4531H18.3901V27.6879Z" fill="#4B4B4B"/>
<path d="M24.1299 19.9077C23.702 19.9077 23.319 19.9847 22.9807 20.1389C22.6466 20.293 22.3634 20.516 22.1311 20.808C21.8988 21.0959 21.7215 21.4467 21.5993 21.8604C21.477 22.27 21.4159 22.7323 21.4159 23.2473C21.4159 23.9367 21.5137 24.5308 21.7093 25.0296C21.9049 25.5244 22.2024 25.9056 22.6018 26.1733C23.0011 26.4369 23.5064 26.5687 24.1177 26.5687C24.4967 26.5687 24.8655 26.5322 25.2241 26.4592C25.5827 26.3862 25.9536 26.2868 26.3366 26.1611V27.402C25.9739 27.544 25.6072 27.6474 25.2363 27.7123C24.8655 27.7772 24.4376 27.8096 23.9527 27.8096C23.0398 27.8096 22.2819 27.621 21.6787 27.2439C21.0797 26.8667 20.6314 26.3355 20.3339 25.6501C20.0405 24.9648 19.8938 24.1618 19.8938 23.2412C19.8938 22.568 19.9876 21.9516 20.175 21.392C20.3625 20.8323 20.6355 20.3497 20.9941 19.9442C21.3527 19.5346 21.7949 19.2203 22.3206 19.0013C22.8503 18.7783 23.4555 18.6667 24.136 18.6667C24.5843 18.6667 25.0244 18.7174 25.4564 18.8188C25.8924 18.9162 26.2959 19.0561 26.6667 19.2386L26.1532 20.443C25.8435 20.297 25.5196 20.1713 25.1813 20.0659C24.8431 19.9604 24.4926 19.9077 24.1299 19.9077Z" fill="#4B4B4B"/>
</svg>
