<svg width="48" height="48" viewBox="0 0 48 48" fill="none" xmlns="http://www.w3.org/2000/svg">
<path fill-rule="evenodd" clip-rule="evenodd" d="M22.4482 3.83769C23.0901 4.36136 23.186 5.30626 22.6623 5.94818L7.93582 24L22.6623 42.0518C23.186 42.6937 23.0901 43.6386 22.4482 44.1623C21.8063 44.686 20.8614 44.5901 20.3377 43.9482L4.8377 24.9482C4.38743 24.3962 4.38743 23.6037 4.8377 23.0518L20.3377 4.05179C20.8614 3.40987 21.8063 3.31402 22.4482 3.83769Z" fill="#999999"/>
<path fill-rule="evenodd" clip-rule="evenodd" d="M5.5 24C5.5 23.1716 6.17157 22.5 7 22.5H41C41.8284 22.5 42.5 23.1716 42.5 24C42.5 24.8284 41.8284 25.5 41 25.5H7C6.17157 25.5 5.5 24.8284 5.5 24Z" fill="#999999"/>
</svg>
