<svg width="48" height="48" viewBox="0 0 48 48" fill="none" xmlns="http://www.w3.org/2000/svg">
<path d="M30.5455 14.1818V33C30.5455 36.6164 27.6164 39.5455 24 39.5455C20.3836 39.5455 17.4545 36.6164 17.4545 33V12.5455C17.4545 11.4605 17.8856 10.4199 18.6527 9.65274C19.4199 8.88555 20.4605 8.45455 21.5455 8.45455C22.6304 8.45455 23.671 8.88555 24.4382 9.65274C25.2054 10.4199 25.6364 11.4605 25.6364 12.5455V29.7273C25.6364 30.6273 24.9 31.3636 24 31.3636C23.1 31.3636 22.3636 30.6273 22.3636 29.7273V14.1818H19.9091V29.7273C19.9091 30.8122 20.3401 31.8528 21.1073 32.62C21.8745 33.3872 22.915 33.8182 24 33.8182C25.085 33.8182 26.1255 33.3872 26.8927 32.62C27.6599 31.8528 28.0909 30.8122 28.0909 29.7273V12.5455C28.0909 8.92909 25.1618 6 21.5455 6C17.9291 6 15 8.92909 15 12.5455V33C15 37.9745 19.0255 42 24 42C28.9745 42 33 37.9745 33 33V14.1818H30.5455Z" fill="#999999"/>
</svg>
