<svg width="48" height="48" viewBox="0 0 48 48" fill="none" xmlns="http://www.w3.org/2000/svg">
<path fill-rule="evenodd" clip-rule="evenodd" d="M24 41.3C32.45 41.3 39.3 34.45 39.3 26C39.3 17.55 32.45 10.7 24 10.7C15.55 10.7 8.7 17.55 8.7 26C8.7 34.45 15.55 41.3 24 41.3ZM24 44C33.9411 44 42 35.9411 42 26C42 16.0589 33.9411 8 24 8C14.0589 8 6 16.0589 6 26C6 35.9411 14.0589 44 24 44Z" fill="#999999"/>
<rect x="18.2421" y="9.65686" width="8" height="8" transform="rotate(-45 18.2421 9.65686)" fill="#999999"/>
<rect x="5" y="37" width="8" height="8" transform="rotate(-75 5 37)" fill="#999999"/>
<rect x="33.8947" y="31" width="8" height="8" transform="rotate(-17.2073 33.8947 31)" fill="#999999"/>
</svg>
