<svg width="26" height="26" viewBox="0 0 26 26" fill="none" xmlns="http://www.w3.org/2000/svg">
<path d="M22.6726 17.9161L19.5773 16.134V19.8096C19.5773 20.6632 18.8833 21.3572 18.0297 21.3572H3.71425C2.86064 21.3572 2.16663 20.6632 2.16663 19.8096V5.88099C2.16663 5.02738 2.86064 4.33337 3.71425 4.33337H18.0297C18.8833 4.33337 19.5773 5.02738 19.5773 5.88099V9.55658L22.6726 7.7744C23.1876 7.47697 23.8333 7.84936 23.8333 8.44181V17.2463C23.8333 17.8412 23.1876 18.2136 22.6726 17.9161ZM17.8363 6.07444H3.9077V19.6161H17.8363V6.07444ZM22.0922 10.1128L19.5773 11.5588V14.1293L22.0922 15.5778V10.1128Z" fill="#8FB5BE"/>
<path d="M10.5334 16.4435H5.79386C5.60767 16.4435 5.45532 16.5349 5.45532 16.6466V17.8654C5.45532 17.9771 5.60767 18.0685 5.79386 18.0685H10.5334C10.7196 18.0685 10.872 17.9771 10.872 17.8654V16.6466C10.872 16.5349 10.7196 16.4435 10.5334 16.4435Z" fill="#8FB5BE"/>
</svg>
