<svg width="25" height="24" viewBox="0 0 25 24" fill="none" xmlns="http://www.w3.org/2000/svg">
<path fill-rule="evenodd" clip-rule="evenodd" d="M10.4381 17C14.1561 17 17.1702 13.9779 17.1702 10.25C17.1702 6.52208 14.1561 3.5 10.4381 3.5C6.72013 3.5 3.70609 6.52208 3.70609 10.25C3.70609 13.9779 6.72013 17 10.4381 17ZM10.4381 18.5C14.9824 18.5 18.6662 14.8063 18.6662 10.25C18.6662 5.69365 14.9824 2 10.4381 2C5.89391 2 2.21008 5.69365 2.21008 10.25C2.21008 14.8063 5.89391 18.5 10.4381 18.5Z" fill="white"/>
<path fill-rule="evenodd" clip-rule="evenodd" d="M15.1452 14.9697C15.4373 14.6768 15.911 14.6768 16.2031 14.9697L21.6884 20.4697C21.9806 20.7626 21.9806 21.2374 21.6884 21.5303C21.3963 21.8232 20.9227 21.8232 20.6306 21.5303L15.1452 16.0303C14.8531 15.7374 14.8531 15.2626 15.1452 14.9697Z" fill="white"/>
</svg>
