<svg width="30" height="30" viewBox="0 0 30 30" fill="none" xmlns="http://www.w3.org/2000/svg">
<path fill-rule="evenodd" clip-rule="evenodd" d="M2.5 15.3125C2.5 14.7947 2.9095 14.375 3.41463 14.375H26.5854C27.0905 14.375 27.5 14.7947 27.5 15.3125C27.5 15.8303 27.0905 16.25 26.5854 16.25H3.41463C2.9095 16.25 2.5 15.8303 2.5 15.3125Z" fill="#FAFAFA"/>
<path fill-rule="evenodd" clip-rule="evenodd" d="M15.3125 27.5C14.7947 27.5 14.375 27.0905 14.375 26.5854L14.375 3.41463C14.375 2.9095 14.7947 2.5 15.3125 2.5C15.8303 2.5 16.25 2.9095 16.25 3.41463L16.25 26.5854C16.25 27.0905 15.8303 27.5 15.3125 27.5Z" fill="#FAFAFA"/>
</svg>
