<svg width="24" height="24" viewBox="0 0 24 24" fill="none" xmlns="http://www.w3.org/2000/svg">
<path fill-rule="evenodd" clip-rule="evenodd" d="M4.51488 16.8852C3.59353 18.4243 3.21514 20.2816 3.25247 21.4766C3.26541 21.8906 2.94027 22.2367 2.52626 22.2496C2.11225 22.2626 1.76614 21.9374 1.75321 21.5234C1.70722 20.0517 2.1537 17.9091 3.22788 16.1148C4.31399 14.3005 6.10818 12.75 8.75187 12.75H14.5C18.7522 12.75 22 16.273 22 21.5C22 21.9142 21.6642 22.25 21.25 22.25C20.8358 22.25 20.5 21.9142 20.5 21.5C20.5 16.9137 17.7478 14.25 14.5 14.25H8.75187C6.79629 14.25 5.4243 15.3661 4.51488 16.8852Z" fill="white"/>
<path fill-rule="evenodd" clip-rule="evenodd" d="M12 10.5C13.933 10.5 15.5 8.933 15.5 7C15.5 5.067 13.933 3.5 12 3.5C10.067 3.5 8.5 5.067 8.5 7C8.5 8.933 10.067 10.5 12 10.5ZM12 12C14.7614 12 17 9.76142 17 7C17 4.23858 14.7614 2 12 2C9.23858 2 7 4.23858 7 7C7 9.76142 9.23858 12 12 12Z" fill="white"/>
</svg>
