<svg width="20" height="20" viewBox="0 0 20 20" fill="none" xmlns="http://www.w3.org/2000/svg">
<path d="M16.3542 18.2657H16.2265C3.71331 17.5635 1.92571 6.96557 1.67034 3.70959C1.6065 2.68811 2.37261 1.73047 3.45794 1.66663H6.96929C7.48003 1.66663 7.99077 1.98584 8.1823 2.49658L9.0761 4.85876C9.26762 5.30566 9.13994 5.88025 8.82073 6.2633L7.48003 7.604C7.92693 10.0939 9.84221 12.0091 12.3321 12.456L13.7366 11.1154C14.1197 10.7323 14.6304 10.6685 15.1412 10.86L17.5672 11.8176C18.0141 12.0091 18.3333 12.456 18.3333 13.0306V16.3505C18.2695 17.4358 17.4395 18.2657 16.3542 18.2657ZM3.58562 2.94348C3.20256 2.94348 2.94719 3.19885 2.94719 3.58191V3.64575C3.26641 7.41247 5.11785 16.3505 16.2903 16.9889C16.6734 16.9889 16.9288 16.7335 16.9926 16.4143V12.9668L14.5666 12.0091L12.7151 13.8606L12.4598 13.7967C6.90544 13.0945 6.13933 7.54016 6.13933 7.47632L6.07549 7.1571L7.86308 5.30566L6.96929 2.94348H3.58562Z" fill="white"/>
<path fill-rule="evenodd" clip-rule="evenodd" d="M17.7335 3.15027L10.8585 10.0253L9.97464 9.14139L16.8496 2.26638L17.7335 3.15027Z" fill="white"/>
<path fill-rule="evenodd" clip-rule="evenodd" d="M18.3333 2.49996L18.3333 9.16663L17.0833 9.16663L17.0833 3.12496L11.0416 3.12496L11.0416 1.87496L17.7083 1.87496C18.0534 1.87496 18.3333 2.15478 18.3333 2.49996Z" fill="white"/>
</svg>
