<svg width="31" height="30" viewBox="0 0 31 30" fill="none" xmlns="http://www.w3.org/2000/svg">
<path fill-rule="evenodd" clip-rule="evenodd" d="M9.62069 4.44825H7.75862V5.68963V8.17239V13.7586V16.2414V21.8276V24.3103V25.5517H9.62069L9.62069 4.44825ZM11.4828 4.44825L11.4828 25.5517H25.7586C26.1014 25.5517 26.3793 25.2738 26.3793 24.931V5.06894C26.3793 4.72614 26.1014 4.44825 25.7586 4.44825H11.4828ZM5.89655 2.58618V5.68963H3.41379V8.17239H5.89655V13.7586H3.41379V16.2414H5.89655V21.8276H3.41379V24.3103H5.89655V27.4138H25.7586C27.1298 27.4138 28.2414 26.3022 28.2414 24.931V5.06894C28.2414 3.69775 27.1298 2.58618 25.7586 2.58618H5.89655ZM20.1724 12.5172C20.1724 14.2312 18.783 15.6207 17.069 15.6207C15.355 15.6207 13.9655 14.2312 13.9655 12.5172C13.9655 10.8032 15.355 9.41377 17.069 9.41377C18.783 9.41377 20.1724 10.8032 20.1724 12.5172ZM21.6896 12.6551C21.6896 13.8916 20.9973 14.9663 19.9793 15.5129C20.2386 15.5832 20.5115 15.6207 20.7931 15.6207C22.5071 15.6207 23.8965 14.2312 23.8965 12.5172C23.8965 10.8032 22.5071 9.41377 20.7931 9.41377C20.3833 9.41377 19.9921 9.49319 19.6339 9.63749C20.8376 10.1108 21.6896 11.2835 21.6896 12.6551ZM12.7241 21.8276C12.7241 19.0852 14.8083 16.862 17.3793 16.862C19.9503 16.862 22.0345 19.0852 22.0345 21.8276H12.7241ZM22.9655 21.8276H25.1379C25.3448 20.1724 24.2069 16.862 20.1724 16.862C22.0345 17.4827 23.2759 19.9655 22.9655 21.8276Z" fill="white"/>
</svg>
