<svg width="32" height="32" viewBox="0 0 32 32" fill="none" xmlns="http://www.w3.org/2000/svg">
<path fill-rule="evenodd" clip-rule="evenodd" d="M25.2929 28.7071L2.62622 6.04043L4.04043 4.62622L26.7071 27.2929L25.2929 28.7071Z" fill="#4B4B4B"/>
<path fill-rule="evenodd" clip-rule="evenodd" d="M2.66663 13C2.66663 12.4477 3.11434 12 3.66663 12H6.99996V14H4.66663V19.6667H8.33329C8.55226 19.6667 8.76517 19.7385 8.93934 19.8712L14.3333 23.9809V21H16.3333V26C16.3333 26.3801 16.1178 26.7274 15.7771 26.8961C15.4365 27.0648 15.0296 27.0258 14.7272 26.7954L7.99575 21.6667H3.66663C3.11434 21.6667 2.66663 21.219 2.66663 20.6667V13Z" fill="#4B4B4B"/>
<path fill-rule="evenodd" clip-rule="evenodd" d="M15.716 6.07615C16.0897 6.23093 16.3333 6.59557 16.3333 7.00003V13H14.3333V9.41424L13.0404 10.7071L11.6262 9.29292L14.6262 6.29292C14.9122 6.00692 15.3423 5.92137 15.716 6.07615Z" fill="#4B4B4B"/>
<path fill-rule="evenodd" clip-rule="evenodd" d="M27.3334 15.3333C27.3334 11.381 25.254 8.09922 24.2601 7.00599L25.74 5.66064C26.9684 7.01186 29.3334 10.7523 29.3334 15.3333C29.3334 19.8103 27.7125 23.7158 26.8639 25.1705L25.1363 24.1628C25.8432 22.9509 27.3334 19.3897 27.3334 15.3333Z" fill="#4B4B4B"/>
<path fill-rule="evenodd" clip-rule="evenodd" d="M23.6667 15.2243C23.6667 12.8191 22.1015 10.7701 21.3311 10.0767L22.669 8.59009C23.6763 9.49669 25.6667 12.044 25.6667 15.2243C25.6667 18.2766 24.3235 20.9191 23.6143 21.9139L21.9858 20.7529C22.521 20.0022 23.6667 17.7574 23.6667 15.2243Z" fill="#4B4B4B"/>
<path fill-rule="evenodd" clip-rule="evenodd" d="M19.6667 15.6121C19.6667 14.6033 18.9904 13.7033 18.6644 13.4099L20.0024 11.9233C20.5653 12.4299 21.6667 13.8282 21.6667 15.6121C21.6667 17.2681 20.9458 18.6887 20.5476 19.2472L18.9192 18.0861C19.1432 17.7718 19.6667 16.7488 19.6667 15.6121Z" fill="#4B4B4B"/>
</svg>
