<svg width="48" height="48" viewBox="0 0 48 48" fill="none" xmlns="http://www.w3.org/2000/svg">
<path fill-rule="evenodd" clip-rule="evenodd" d="M5.5 8C5.5 7.17157 6.17157 6.5 7 6.5H27C27.8284 6.5 28.5 7.17157 28.5 8V17.8824H25.5V9.5H8.5V38.5H25.5V29.6471H28.5V40C28.5 40.8284 27.8284 41.5 27 41.5H7C6.17157 41.5 5.5 40.8284 5.5 40V8Z" fill="#999999"/>
<path fill-rule="evenodd" clip-rule="evenodd" d="M42 25.5H16.5V22.5H42V25.5Z" fill="#999999"/>
<path fill-rule="evenodd" clip-rule="evenodd" d="M40.364 24L32.9394 16.5754L35.0607 14.4541L43.546 22.9393C44.1318 23.5251 44.1318 24.4749 43.546 25.0607L35.0607 33.5459L32.9394 31.4246L40.364 24Z" fill="#999999"/>
</svg>
