<svg width="48" height="48" viewBox="0 0 48 48" fill="none" xmlns="http://www.w3.org/2000/svg">
<path d="M11.285 36C11.385 36 11.485 35.99 11.585 35.975L19.995 34.5C20.095 34.48 20.19 34.435 20.26 34.36L41.455 13.165C41.5013 13.1187 41.5381 13.0638 41.5632 13.0033C41.5883 12.9428 41.6012 12.878 41.6012 12.8125C41.6012 12.747 41.5883 12.6822 41.5632 12.6217C41.5381 12.5612 41.5013 12.5063 41.455 12.46L33.145 4.145C33.05 4.05 32.925 4 32.79 4C32.655 4 32.53 4.05 32.435 4.145L11.24 25.34C11.165 25.415 11.12 25.505 11.1 25.605L9.625 34.015C9.57636 34.2829 9.59374 34.5585 9.67563 34.8182C9.75753 35.0778 9.90147 35.3135 10.095 35.505C10.425 35.825 10.84 36 11.285 36ZM14.655 27.28L32.79 9.15L36.455 12.815L18.32 30.945L13.875 31.73L14.655 27.28ZM42.4 40.2H5.6C4.715 40.2 4 40.915 4 41.8V43.6C4 43.82 4.18 44 4.4 44H43.6C43.82 44 44 43.82 44 43.6V41.8C44 40.915 43.285 40.2 42.4 40.2Z" fill="#999999"/>
</svg>
