<svg width="48" height="48" viewBox="0 0 48 48" fill="none" xmlns="http://www.w3.org/2000/svg">
<path fill-rule="evenodd" clip-rule="evenodd" d="M19.1273 8.15349C10.0938 10.574 4.73295 19.8593 7.15346 28.8928C7.76399 31.1713 8.80952 33.2131 10.1759 34.9555L17.1314 28L17.1314 41.1314H3.99997L7.98545 37.1459C6.25377 35.0207 4.93374 32.5043 4.17955 29.6896C1.31894 19.0137 7.65451 8.04018 18.3304 5.17958C29.0063 2.31897 39.9799 8.65454 42.8405 19.3305C45.7011 30.0064 39.3655 40.9799 28.6896 43.8405L27.8927 40.8666C36.9262 38.4461 42.2871 29.1608 39.8665 20.1273C37.446 11.0938 28.1608 5.73298 19.1273 8.15349ZM22 13C22.8284 13 23.5 13.6716 23.5 14.5V23.8787L31.0606 31.4393C31.6464 32.0251 31.6464 32.9749 31.0606 33.5607C30.4748 34.1464 29.5251 34.1464 28.9393 33.5607L20.9393 25.5607C20.658 25.2794 20.5 24.8978 20.5 24.5V14.5C20.5 13.6716 21.1715 13 22 13Z" fill="#999999"/>
</svg>
