<svg width="48" height="48" viewBox="0 0 48 48" fill="none" xmlns="http://www.w3.org/2000/svg">
<path fill-rule="evenodd" clip-rule="evenodd" d="M7 37V11H41V37H7ZM4 10C4 8.89543 4.89543 8 6 8H42C43.1046 8 44 8.89543 44 10V38C44 39.1046 43.1046 40 42 40H6C4.89543 40 4 39.1046 4 38V10ZM19 25C19 26.6569 17.6569 28 16 28C14.3431 28 13 26.6569 13 25C13 23.3431 14.3431 22 16 22C17.6569 22 19 23.3431 19 25ZM16 19H31V19.083C31.3252 19.0284 31.6593 19 32 19C35.3137 19 38 21.6863 38 25C38 28.3137 35.3137 31 32 31C28.6863 31 26 28.3137 26 25C26 23.9071 26.2922 22.8825 26.8027 22H21.1973C21.7078 22.8825 22 23.9071 22 25C22 28.3137 19.3137 31 16 31C12.6863 31 10 28.3137 10 25C10 21.6863 12.6863 19 16 19ZM32 28C33.6569 28 35 26.6569 35 25C35 23.3431 33.6569 22 32 22C30.3431 22 29 23.3431 29 25C29 26.6569 30.3431 28 32 28Z" fill="#999999"/>
</svg>
