<svg width="48" height="48" viewBox="0 0 48 48" fill="none" xmlns="http://www.w3.org/2000/svg">
<path d="M25 33H23.0821L11 42V33H10C6.68629 33 4 30.3137 4 27V10C4 6.68629 6.68629 4 10 4H38C41.3137 4 44 6.68629 44 10V27C44 30.3137 41.3137 33 38 33V30C39.6569 30 41 28.6569 41 27V10C41 8.34315 39.6569 7 38 7H10C8.34315 7 7 8.34315 7 10V27C7 28.6569 8.34315 30 10 30H11C12.6569 30 14 31.3431 14 33V36.607L21.5 30.4511C21.975 30.1562 22.523 30 23.0821 30H25V33Z" fill="#999999"/>
<path fill-rule="evenodd" clip-rule="evenodd" d="M34 17.5H14V14.5H34V17.5Z" fill="#999999"/>
<path fill-rule="evenodd" clip-rule="evenodd" d="M26 25H14V22H26V25Z" fill="#999999"/>
<path fill-rule="evenodd" clip-rule="evenodd" d="M26.487 25.5338L39.2149 38.2617L36.9688 40.5078L24.2409 27.7799L26.487 25.5338Z" fill="#FB6376"/>
<path fill-rule="evenodd" clip-rule="evenodd" d="M24.2409 38.2617L36.9688 25.5338L39.2149 27.7799L26.487 40.5078L24.2409 38.2617Z" fill="#FB6376"/>
</svg>
