<svg width="48" height="48" viewBox="0 0 48 48" fill="none" xmlns="http://www.w3.org/2000/svg">
<path fill-rule="evenodd" clip-rule="evenodd" d="M37.9393 43.0607L3.93933 9.06065L6.06065 6.93933L40.0607 40.9393L37.9393 43.0607Z" fill="#999999"/>
<path fill-rule="evenodd" clip-rule="evenodd" d="M4 19.5C4 18.6716 4.67157 18 5.5 18H10.5V21H7V29.5H12.5C12.8284 29.5 13.1478 29.6078 13.4091 29.8069L21.5 35.9714V31.5H24.5V39C24.5 39.5702 24.1767 40.0911 23.6657 40.3442C23.1548 40.5972 22.5445 40.5387 22.0909 40.1931L11.9937 32.5H5.5C4.67157 32.5 4 31.8284 4 31V19.5Z" fill="#999999"/>
<path fill-rule="evenodd" clip-rule="evenodd" d="M23.574 9.11419C24.1345 9.34637 24.5 9.89332 24.5 10.5V19.5H21.5V14.1213L19.5607 16.0607L17.4393 13.9394L21.9393 9.43935C22.3683 9.01036 23.0135 8.88202 23.574 9.11419Z" fill="#999999"/>
<path fill-rule="evenodd" clip-rule="evenodd" d="M41 23C41 17.0715 37.8809 12.1489 36.3901 10.509L38.61 8.491C40.4525 10.5178 44 16.1285 44 23C44 29.7154 41.5686 35.5737 40.2957 37.7558L37.7044 36.2442C38.7648 34.4263 41 29.0846 41 23Z" fill="#999999"/>
<path fill-rule="evenodd" clip-rule="evenodd" d="M35.5 22.8364C35.5 19.2286 33.1522 16.155 31.9966 15.115L34.0035 12.8851C35.5145 14.245 38.5 18.0659 38.5 22.8364C38.5 27.4149 36.4853 31.3786 35.4214 32.8708L32.9787 31.1292C33.7815 30.0032 35.5 26.636 35.5 22.8364Z" fill="#999999"/>
<path fill-rule="evenodd" clip-rule="evenodd" d="M29.5 23.4182C29.5 21.905 28.4856 20.555 27.9966 20.115L30.0035 17.8851C30.8478 18.645 32.5 20.7423 32.5 23.4182C32.5 25.9022 31.4186 28.0332 30.8214 28.8708L28.3787 27.1292C28.7148 26.6578 29.5 25.1233 29.5 23.4182Z" fill="#999999"/>
</svg>
