<svg width="48" height="48" viewBox="0 0 48 48" fill="none" xmlns="http://www.w3.org/2000/svg">
<path fill-rule="evenodd" clip-rule="evenodd" d="M34.8 26V44H31.2V26H34.8Z" fill="#999999"/>
<path fill-rule="evenodd" clip-rule="evenodd" d="M24 32.4286L42 32.4286V36.2857L24 36.2857L24 32.4286Z" fill="#999999"/>
<path d="M29 25.5H18.0037C12.7164 25.5 9.12797 28.6011 6.95576 32.2295C4.80741 35.8181 3.91445 40.1034 4.00641 43.0468C4.03228 43.8749 4.7245 44.5251 5.55253 44.4993C6.38055 44.4734 7.03082 43.7812 7.00495 42.9532C6.93028 40.5632 7.68707 36.8485 9.52977 33.7705C11.3486 30.7323 14.0926 28.5 18.0037 28.5H29V25.5Z" fill="#999999"/>
<path d="M40.8836 38C41.2827 39.5071 41.5 41.1777 41.5 43C41.5 43.8284 42.1715 44.5 43 44.5C43.8284 44.5 44.5 43.8284 44.5 43C44.5 41.2297 44.3137 39.5572 43.963 38H40.8836Z" fill="#999999"/>
<path d="M40.336 30.5C39.3604 29.3518 38.239 28.3799 37 27.607V30.5H40.336Z" fill="#999999"/>
<path fill-rule="evenodd" clip-rule="evenodd" d="M24.5 21C28.366 21 31.5 17.866 31.5 14C31.5 10.134 28.366 7 24.5 7C20.634 7 17.5 10.134 17.5 14C17.5 17.866 20.634 21 24.5 21ZM24.5 24C30.0228 24 34.5 19.5228 34.5 14C34.5 8.47715 30.0228 4 24.5 4C18.9772 4 14.5 8.47715 14.5 14C14.5 19.5228 18.9772 24 24.5 24Z" fill="#999999"/>
</svg>
