<svg width="48" height="48" viewBox="0 0 48 48" fill="none" xmlns="http://www.w3.org/2000/svg">
<path fill-rule="evenodd" clip-rule="evenodd" d="M44 32C44 32.965 43.8861 33.9035 43.671 34.8026L41.3368 34.2441C41.4978 33.5714 41.5883 32.8693 41.5989 32.1451C41.5227 37.2923 37.3955 41.4581 32.2636 41.5965C32.9459 41.5782 33.6082 41.489 34.2441 41.3368L34.8026 43.671C33.9035 43.8861 32.965 44 32 44C31.035 44 30.0965 43.8861 29.1974 43.671L29.7559 41.3368C30.4286 41.4978 31.1307 41.5883 31.8549 41.5989C29.3787 41.5622 27.1296 40.588 25.4468 39.0154C25.9178 39.4556 26.4331 39.8491 26.9852 40.1881L25.7293 42.2332C24.1171 41.2432 22.7568 39.8829 21.7668 38.2707L23.8119 37.0148C24.1587 37.5795 24.5624 38.1058 25.0149 38.5855C23.433 36.9082 22.4485 34.6613 22.4017 32.185C22.4151 32.8951 22.5052 33.5838 22.6632 34.2441L20.329 34.8026C20.1139 33.9035 20 32.965 20 32C20 31.035 20.1139 30.0965 20.329 29.1974L22.6632 29.7559C22.5022 30.4286 22.4117 31.1307 22.4011 31.8549C22.4777 26.6809 26.6476 22.4985 31.8167 22.4017C31.106 22.4149 30.4168 22.505 29.7559 22.6632L29.1974 20.329C30.0965 20.1139 31.035 20 32 20C32.965 20 33.9035 20.1139 34.8026 20.329L34.2441 22.6632C33.5714 22.5022 32.8693 22.4117 32.1451 22.4011C37.2923 22.4773 41.4581 26.6045 41.5965 31.7364C41.5782 31.0541 41.489 30.3918 41.3368 29.7559L43.671 29.1974C43.8861 30.0965 44 31.035 44 32ZM40.1881 37.0148L42.2332 38.2707C41.2432 39.8829 39.8829 41.2432 38.2707 42.2332L37.0148 40.1881C38.3055 39.3955 39.3955 38.3055 40.1881 37.0148ZM23.8119 26.9852L21.7668 25.7293C22.7568 24.1171 24.1171 22.7568 25.7293 21.7668L26.9852 23.8119C25.6945 24.6046 24.6046 25.6945 23.8119 26.9852ZM37.0148 23.8119L38.2707 21.7668C39.8829 22.7568 41.2432 24.1171 42.2332 25.7293L40.1881 26.9852C39.3955 25.6945 38.3055 24.6046 37.0148 23.8119ZM38 32C38 35.3137 35.3137 38 32 38C28.6863 38 26 35.3137 26 32C26 28.6863 28.6863 26 32 26C35.3137 26 38 28.6863 38 32Z" fill="#4B4B4B"/>
<path d="M19.5 36L11 42V33H10C6.68629 33 4 30.3137 4 27V10C4 6.68629 6.68629 4 10 4H38C41.3137 4 44 6.68629 44 10V22H41V10C41 8.34315 39.6569 7 38 7H10C8.34315 7 7 8.34315 7 10V27C7 28.6569 8.34315 30 10 30H11C12.6569 30 14 31.3431 14 33V36.607L18 33.5C18 33.5 18.9179 35 19.5 36Z" fill="#4B4B4B"/>
<path fill-rule="evenodd" clip-rule="evenodd" d="M31 15H11V12H31V15Z" fill="#4B4B4B"/>
<path fill-rule="evenodd" clip-rule="evenodd" d="M23 22.5H11V19.5H23V22.5Z" fill="#4B4B4B"/>
</svg>
